<svg width="16" height="18" fill="none" xmlns="http://www.w3.org/2000/svg"><path d="m15.248 12.554-2.136-1.225 1.856-.815a.514.514 0 0 0 .265-.676.524.524 0 0 0-.676-.264l-2.551 1.12L9.03 8.99l2.96-1.709 2.58 1.124a.517.517 0 0 0 .674-.267.513.513 0 0 0-.266-.673l-1.884-.82 2.147-1.24a.508.508 0 0 0 .187-.7.528.528 0 0 0-.7-.188l-2.133 1.23.229-2.014a.51.51 0 0 0-.45-.568.51.51 0 0 0-.568.453l-.29 2.768-2.955 1.719V4.69l2.236-1.671a.489.489 0 0 0 .195-.324.533.533 0 0 0-.1-.393.5.5 0 0 0-.698-.107L8.562 3.413V.94c0-.302-.297-.512-.564-.512-.265 0-.56.21-.56.512V3.4L5.83 2.195a.508.508 0 0 0-.704.107.54.54 0 0 0-.102.399c.02.129.088.241.19.317l2.223 1.656v3.427l-2.91-1.681-.31-2.77a.51.51 0 0 0-.562-.45.515.515 0 0 0-.448.57l.236 2.015-2.182-1.252a.513.513 0 0 0-.698.19.516.516 0 0 0 .189.7l2.197 1.26-1.882.825a.508.508 0 0 0-.263.675.52.52 0 0 0 .675.265l2.576-1.131 2.92 1.674-2.926 1.69-2.554-1.113a.522.522 0 0 0-.674.265.514.514 0 0 0 .265.676l1.858.809-2.179 1.258a.515.515 0 0 0-.186.7.515.515 0 0 0 .7.188l2.193-1.267-.232 2.044a.51.51 0 0 0 .511.57c.26 0 .48-.196.509-.457l.293-2.795 2.884-1.678v3.405l-1.98 1.657a.513.513 0 0 0-.055.719.519.519 0 0 0 .401.188c.142 0 .237-.061.308-.118l1.326-1.112v2.44c0 .302.296.512.561.512.267 0 .564-.21.564-.512v-2.457l1.347 1.132c.224.18.528.137.7-.07a.544.544 0 0 0 .128-.364.477.477 0 0 0-.172-.358L8.562 13.27V9.874l2.946 1.702.312 2.796a.51.51 0 0 0 .558.448.51.51 0 0 0 .45-.568l-.238-2.041 2.148 1.232a.51.51 0 0 0 .7-.19.514.514 0 0 0-.19-.699Z" fill="#222"/></svg>