<svg version="1.1" id="Capa_1" xmlns="http://www.w3.org/2000/svg" x="0" y="0" viewBox="0 0 64.1 66.6" style="enable-background:new 0 0 64.1 66.6" xml:space="preserve"><style>.st0{fill:none;stroke:#bfad8f;stroke-width:1.5;stroke-linecap:round;stroke-miterlimit:10}.st2{fill:#bfad8f}</style><path id="XMLID_33_" class="st0" d="M21.4 1.4c-1.3.9-1.6 1.7-1.6 2.3 0 1 .8 1.5.9 2.6.1.9-.5 1.7-.9 2.3"/><path id="XMLID_35_" class="st0" d="M16.1 6.7c-1.3.9-1.6 1.7-1.6 2.2 0 1 .8 1.5.9 2.6.1.9-.5 1.7-.9 2.3"/><path id="XMLID_36_" class="st0" d="M42.3 6.7c-1.3.9-1.6 1.7-1.6 2.2 0 1 .8 1.5.9 2.6.1.9-.5 1.7-.9 2.3"/><path id="XMLID_37_" class="st0" d="M47.5 1.4c-1.3.9-1.6 1.7-1.6 2.3 0 1 .8 1.5.9 2.6.1.9-.5 1.7-.9 2.3"/><path id="XMLID_38_" class="st0" d="M26.8 26.3H10.6c-1.2 0-2.2-1-2.2-2.2v-3.9c0-1.2 1-2.2 2.2-2.2h16.1c1.2 0 2.2 1 2.2 2.2v3.9c0 1.2-.9 2.2-2.1 2.2z"/><path id="XMLID_40_" class="st0" d="M53.4 26.3H37.3c-1.2 0-2.2-1-2.2-2.2v-3.9c0-1.2 1-2.2 2.2-2.2h16.1c1.2 0 2.2 1 2.2 2.2v3.9c0 1.2-1 2.2-2.2 2.2z"/><path id="XMLID_44_" style="fill:none;stroke:#bfad8f;stroke-miterlimit:10" d="M42.1 61H21"/><path id="XMLID_50_" class="st2" d="M45.5 50.8c-.4.2-.9.5-1.4.7l6.7 8.8c.4.5.6 1.2.5 1.9-.1.7-.4 1.3-1 1.7l-.9.7c-.5.4-1.2.6-1.9.5s-1.3-.4-1.7-1l-7.1-9.3c-.3-.4-.5-.8-.5-1.3l-1.5.3c.1.7.3 1.3.8 1.9l7.1 9.3c.7.9 1.6 1.4 2.7 1.6h.6c.9 0 1.7-.3 2.5-.8l.9-.7c.9-.7 1.4-1.6 1.6-2.7.1-1.1-.1-2.2-.8-3l-6.6-8.6z"/><path id="XMLID_32_" class="st2" d="M18.2 50.8c.4.2.9.5 1.4.7l-6.7 8.8c-.4.5-.6 1.2-.5 1.9.1.7.4 1.3 1 1.7l.9.7c.5.4 1.2.6 1.9.5.7-.1 1.3-.4 1.7-1l7.1-9.3c.3-.4.5-.8.5-1.3l1.5.3c-.1.7-.3 1.3-.8 1.9L19.1 65c-.7.9-1.6 1.4-2.7 1.6h-.6c-.9 0-1.7-.3-2.5-.8l-.9-.7c-.9-.7-1.4-1.6-1.6-2.7-.1-1.1.1-2.2.8-3l6.6-8.6z"/><path id="XMLID_41_" class="st2" d="M60.3 25.6H3.8c-2.1 0-3.8 1.7-3.8 3.8 0 2.1 1.7 3.8 3.8 3.8h26.4c.4 0 .7-.3.7-.7 0-.4-.3-.7-.7-.7H3.8c-1.3 0-2.3-1-2.3-2.3 0-1.3 1-2.3 2.3-2.3h56.5c1.3 0 2.3 1 2.3 2.3 0 1.3-1 2.3-2.3 2.3H33c-.4 0-.8.3-.8.8 0 .4.3.8.8.8h27.2c2.1 0 3.8-1.7 3.8-3.8.1-2.3-1.6-4-3.7-4z"/><g id="XMLID_28_"><path id="XMLID_39_" class="st2" d="M10 43.8c-2.8-3.2-4.5-7.1-5.6-11.3H3c1.2 4.7 2.8 8.9 5.9 12.4.2.2.6.1.9-.2.4-.3.4-.7.2-.9z"/><path id="XMLID_46_" class="st2" d="M59.2 32.4c-3.3 12.1-14.4 21.1-27.6 21.1-7.9 0-15.1-3.2-20.3-8.4-.2-.2-.6-.1-.9.2-.3.3-.4.7-.2.9 5.5 5.5 13 8.9 21.3 8.9 14 0 25.9-9.6 29.2-22.6h-1.5z"/></g></svg>