<svg width="24" height="24" fill="none" xmlns="http://www.w3.org/2000/svg"><path fill-rule="evenodd" clip-rule="evenodd" d="M21.068 0A2.934 2.934 0 0 1 24 2.932v18.136A2.934 2.934 0 0 1 21.068 24H2.932A2.934 2.934 0 0 1 0 21.068V2.932A2.934 2.934 0 0 1 2.932 0h18.136Zm.292 15.5a5.925 5.925 0 0 0-.16-1.86 4.538 4.538 0 0 0-.733-1.584 3.705 3.705 0 0 0-1.302-1.107c-.531-.277-1.15-.413-1.856-.413-.64 0-1.218.114-1.742.34a4.15 4.15 0 0 0-1.353.931 4.09 4.09 0 0 0-.874 1.4 4.896 4.896 0 0 0-.309 1.746c0 .646.1 1.242.3 1.78.201.541.484 1.002.848 1.392a3.79 3.79 0 0 0 1.349.898c.531.21 1.123.316 1.781.316.944 0 1.753-.216 2.418-.65.672-.432 1.164-1.15 1.49-2.155h-2.02c-.079.258-.281.507-.614.74-.335.234-.735.35-1.197.35-.644 0-1.14-.168-1.484-.504-.345-.335-.567-.96-.567-1.62h6.025ZM8.214 19.122c.518 0 1.022-.066 1.508-.194.492-.13.93-.328 1.312-.598a2.94 2.94 0 0 0 .913-1.045c.224-.424.336-.927.336-1.512 0-.721-.172-1.336-.522-1.85-.349-.512-.875-.87-1.584-1.075.52-.247.91-.564 1.176-.951.264-.388.396-.873.396-1.453 0-.537-.089-.991-.264-1.354a2.233 2.233 0 0 0-.753-.88 3.278 3.278 0 0 0-1.165-.475 7.07 7.07 0 0 0-1.505-.146H2.625v11.533h5.59Zm-.29-5.14c.547 0 .991.125 1.325.378.333.256.5.679.5 1.273 0 .303-.049.554-.151.748a1.227 1.227 0 0 1-.413.46c-.17.116-.372.195-.599.244-.224.05-.461.072-.711.072H5.164v-3.175h2.76Zm10.614-1.25c-.273-.302-.735-.465-1.298-.465-.366 0-.67.061-.913.187a1.838 1.838 0 0 0-.58.46c-.149.185-.25.38-.308.589a2.609 2.609 0 0 0-.104.55h3.731c-.054-.585-.255-1.018-.528-1.322ZM7.54 9.553c.225 0 .444.016.653.057.213.037.397.104.56.203.162.094.292.229.39.4.095.173.142.395.142.663 0 .484-.141.835-.433 1.049-.296.216-.668.323-1.118.323h-2.57V9.554H7.54Zm12-.052V8.364h-4.675v1.138h4.675Z" fill="#777"/></svg>