<svg width="16" height="14" fill="none" xmlns="http://www.w3.org/2000/svg"><path fill-rule="evenodd" clip-rule="evenodd" d="m1.635 4.433.265-.797h-.445a.727.727 0 1 1 0-1.454h.93L2.947.497A.727.727 0 0 1 3.637 0h8.727c.313 0 .59.2.69.497l.561 1.685h.93a.727.727 0 1 1 0 1.454H14.1l.266.797A2.183 2.183 0 0 1 16 6.545v6.546a.727.727 0 0 1-.727.727h-1.455a.727.727 0 0 1-.727-.727v-.727H2.909v.727a.727.727 0 0 1-.727.727H.727A.727.727 0 0 1 0 13.091V6.545c0-1.016.695-1.87 1.635-2.112Zm1.274 2.84a.727.727 0 1 1 0 1.454H1.455v2.182h2.46l1.253-2.507A.727.727 0 0 1 5.818 8h4.364c.275 0 .527.156.65.402l1.254 2.507h2.46V8.727H13.09a.727.727 0 1 1 0-1.454h1.455v-.728a.727.727 0 0 0-.728-.727H2.182a.727.727 0 0 0-.727.727v.728h1.454Zm6.823 2.182H6.268l-.728 1.454h4.92l-.728-1.454Zm-5.571-8-.97 2.909h9.618l-.97-2.91H4.161Z" fill="#222"/></svg>