<svg width="57" height="52" fill="none" xmlns="http://www.w3.org/2000/svg"><path d="M50.932 4.14H45.42V2.084c0-.6-.5-1.088-1.115-1.088s-1.114.487-1.114 1.088V4.14H24.368V2.084c0-.6-.5-1.088-1.115-1.088s-1.114.487-1.114 1.088V4.14h-5.883c-3.35.004-6.064 2.654-6.068 5.924v18.137c0 .601.5 1.088 1.115 1.088s1.114-.487 1.114-1.088v-7.133H54.77v24.061c-.003 2.07-1.72 3.746-3.84 3.748H16.257c-2.12-.002-3.836-1.679-3.84-3.748v-6.287c0-.601-.498-1.089-1.113-1.089-.616 0-1.115.488-1.115 1.089v6.287c.004 3.27 2.718 5.921 6.068 5.925h34.676c3.35-.004 6.064-2.654 6.068-5.925V10.064c-.004-3.27-2.718-5.92-6.068-5.924ZM12.417 18.89v-8.826c.003-2.069 1.72-3.746 3.84-3.748h5.881v2.955c-1.678.535-2.709 2.182-2.432 3.884.278 1.703 1.782 2.955 3.547 2.955 1.766 0 3.27-1.252 3.547-2.955.277-1.702-.754-3.35-2.432-3.884V6.316h18.824v2.955c-1.679.535-2.71 2.182-2.432 3.884.277 1.703 1.78 2.955 3.546 2.955 1.766 0 3.27-1.252 3.547-2.955.277-1.702-.754-3.35-2.432-3.884V6.316h5.51c2.12.002 3.837 1.679 3.84 3.748v8.827H12.417Zm10.836-7.616c.753 0 1.363.595 1.363 1.33 0 .734-.61 1.33-1.363 1.33-.752 0-1.362-.596-1.362-1.33.001-.735.61-1.33 1.362-1.33Zm21.053 0c.753 0 1.363.595 1.363 1.33 0 .734-.61 1.33-1.363 1.33-.752 0-1.362-.596-1.362-1.33.001-.735.61-1.33 1.362-1.33Z" fill="#BEAD8E"/><path d="M7.946 38.435a1.07 1.07 0 0 1 0 1.539 1.133 1.133 0 0 1-1.576 0L.549 34.29a1.07 1.07 0 0 1 0-1.539l5.82-5.683a1.133 1.133 0 0 1 1.577 0 1.07 1.07 0 0 1 0 1.54l-3.918 3.824H25.98c.616 0 1.115.488 1.115 1.088 0 .602-.5 1.089-1.115 1.089H4.028l3.918 3.825Z" fill="#BEAD8E"/></svg>