<svg width="16" height="16" fill="none" xmlns="http://www.w3.org/2000/svg"><g clip-path="url(#a)"><path d="M15.546 2.88 13.12.455A1.54 1.54 0 0 0 12.023 0a1.54 1.54 0 0 0-1.096.454L.77 10.611a.623.623 0 0 0-.177.357l-.587 4.325a.623.623 0 0 0 .701.701l4.325-.587a.624.624 0 0 0 .357-.177L15.546 5.074A1.54 1.54 0 0 0 16 3.977a1.54 1.54 0 0 0-.454-1.096ZM4.656 14.2l-3.305.449.449-3.305 7.197-7.198 2.857 2.857L4.656 14.2ZM14.665 4.192l-1.93 1.93L9.88 3.265l1.929-1.93a.303.303 0 0 1 .43 0l2.427 2.427a.303.303 0 0 1 0 .43Z" fill="#BEAD8E"/></g><defs><clipPath id="a"><path fill="#fff" d="M0 0h16v16H0z"/></clipPath></defs></svg>