<svg width="16" height="17" fill="none" xmlns="http://www.w3.org/2000/svg"><g clip-path="url(#a)" fill="#BEAD8E"><path d="M10.48 12.128a.777.777 0 0 0 0 1.553.777.777 0 0 0 0-1.553Zm0 1.084a.308.308 0 1 1 0-.616.308.308 0 0 1 0 .616Z"/><path d="M14.52 15.18h-.15c.032-.136.01-.037.017-2.425a.234.234 0 0 0-.469 0v2.284c0 .076-.064.14-.14.14H7.183a.143.143 0 0 1-.141-.14V10.77c0-.076.064-.14.14-.14h6.595c.077 0 .141.064.141.14v.89a.234.234 0 1 0 .469 0v-.89a.61.61 0 0 0-.61-.61h-4.97l-.523-.177a.098.098 0 0 1-.066-.092v-.575A3.089 3.089 0 0 0 9.715 6.99c.718.033 1.21-.652.912-1.246v-1.91c0-1.383-.752-1.864-.981-1.978C8.32.275 5.592.045 3.914 1.634a.235.235 0 0 0 .161.405c.173 0 .146-.12.68-.468l.113-.069c1.382-.83 3.421-.575 4.449.692a.225.225 0 0 0 .097.071c.03.012.744.312.744 1.568v1.48a1.009 1.009 0 0 0-.425-.08v-.766a.375.375 0 0 0-.34-.374c-.394-.038-.615-.295-.73-.503a.47.47 0 0 0-.719-.13c-1.045.893-2.249.939-3.074.82a1.153 1.153 0 0 0-1.305.954 1.014 1.014 0 0 0-.44.079c.015-.73-.109-1.52.47-2.529a.234.234 0 0 0-.407-.233c-.353.615-.523 1.325-.528 1.83-.006.151-.002.096-.003 1.363-.298.595.195 1.279.911 1.246a3.093 3.093 0 0 0 1.585 2.377v.524a.098.098 0 0 1-.066.092c-.929.325.166-.07-2.27.794-.213.063-.165.046-.25.08-.522.22-.845.64-.95 1.156-.73 3.672-.703 3.464-.698 3.664.023.579.394.873.964.873h5.571a.234.234 0 0 0 0-.469h-.768c-.328 0-.437-.433-.245-.433h8.079c.191 0 .082.433-.245.433H8.548a.234.234 0 1 0 0 .469h5.727a.809.809 0 0 0 .807-.808.563.563 0 0 0-.563-.563ZM9.732 5.702c.27-.015.513.167.513.409 0 .244-.245.424-.513.41v-.82ZM3.55 6.52c-.27.015-.512-.167-.512-.409 0-.244.244-.424.512-.41v.82Zm.473.27c-.006-.109-.003-.07-.004-1.278.007-.04-.05-.362.235-.609.151-.13.35-.189.549-.16.921.133 2.267.08 3.446-.928l.003.001c.227.408.584.665 1.013.732 0 2.119.027 2.325-.078 2.745-.065.26-.177.52-.313.74-1.376 2.175-4.723 1.32-4.851-1.244Zm-.96 9.29h-1.18c-.401 0-.473-.19-.491-.355-.019-.173.02-.25.18-1.087h1.49v1.442Zm3.378-.902c-.381 0-.68.37-.517.83.006.02.018.05.028.072h-2.42v-2.21a.234.234 0 1 0-.47 0v.299H1.667c.442-2.22.417-2.127.465-2.255.097-.253.24-.401.447-.537.183-.106.204-.1.376-.153.013-.003-.07.025 1.351-.478l.85-.291a.956.956 0 0 0 .652.894c.245.082.502.127.766.136.015 3.566-.021 3.534.017 3.693h-.15Zm.132-4.409v.247a2.192 2.192 0 0 1-.617-.111.488.488 0 0 1-.333-.464l-.001-.867c.99.345 1.77.072 1.823.067v-.001l.002-.001.001.002c.082-.027.11-.025.301-.099v.618h-.566a.61.61 0 0 0-.61.61Z"/></g><defs><clipPath id="a"><path fill="#fff" transform="translate(0 .55)" d="M0 0h16v16H0z"/></clipPath></defs></svg>