<svg width="16" height="12" fill="none" xmlns="http://www.w3.org/2000/svg"><path d="M14.591 1.979a.375.375 0 0 0-.525-.076L8.017 6.418a.125.125 0 0 1-.15 0l-5.93-4.535a.375.375 0 0 0-.455.596l4.663 3.566L1.534 9.52a.377.377 0 1 0 .451.605l4.779-3.607.647.5a.875.875 0 0 0 1.054.007l.68-.507 4.835 3.607a.375.375 0 1 0 .449-.601L9.77 6.044 14.515 2.5a.375.375 0 0 0 .076-.521Z" fill="#BEAD8E"/><path d="M14.125.375H1.875A1.875 1.875 0 0 0 0 2.25v7.5a1.875 1.875 0 0 0 1.875 1.875h12.25A1.875 1.875 0 0 0 16 9.75v-7.5A1.875 1.875 0 0 0 14.125.375ZM15.25 9.75a1.125 1.125 0 0 1-1.125 1.125H1.875A1.125 1.125 0 0 1 .75 9.75v-7.5a1.125 1.125 0 0 1 1.125-1.125h12.25A1.125 1.125 0 0 1 15.25 2.25v7.5Z" fill="#BEAD8E"/></svg>