<svg width="16" height="17" fill="none" xmlns="http://www.w3.org/2000/svg"><g clip-path="url(#a)" fill="#BEAD8E"><path d="m8.207 5.258 1.876.542a.667.667 0 0 0 .506-.057.666.666 0 0 0-.137-1.221L8.576 3.98a.66.66 0 0 0-.506.057.666.666 0 0 0 .137 1.221Zm-.004-.693a.195.195 0 0 1 .243-.134l1.876.54a.197.197 0 0 1-.109.378l-1.876-.541a.197.197 0 0 1-.134-.243Z"/><path d="M14.834 13.085c-.12-.317-.38-.712-.942-.948.217-.27.471-.73.471-1.397a.234.234 0 1 0-.468 0c0 .503-.178.852-.336 1.064-.203-.475-.554-.811-1.016-.963a1.704 1.704 0 0 0-.139-.04V6.235a.234.234 0 0 0-.313-.22l-.22.078c.137-.905.085-1.784-.155-2.512-.29-.88-.832-1.474-1.526-1.674-.748-.216-1.576.045-2.332.735-.41.374-.773.852-1.07 1.401l-.28-.448a1.975 1.975 0 0 1-.301-1.048V2.11A.84.84 0 0 0 5.775.55H3.108a.84.84 0 0 0-.432 1.56v.436c0 .37-.104.733-.3 1.048l-.17.273a.234.234 0 0 0 .397.248l.17-.273c.243-.389.372-.837.372-1.296V2.23h2.593v.316c0 .459.129.907.372 1.296l.419.67.016.028a7.11 7.11 0 0 0-.523 1.843l-1.031-.37a.234.234 0 0 0-.158 0l-1.736.622-1.043-.374v-.7c0-.23.04-.456.117-.671a.234.234 0 1 0-.44-.16 2.434 2.434 0 0 0-.146.83v.533l-.223-.08a.234.234 0 0 0-.313.221v10.081c0 .13.105.234.234.234 0 0 10.836.002 10.872 0h.015a2.882 2.882 0 0 0 1.532-.52.234.234 0 0 0-.269-.384 2.42 2.42 0 0 1-2.975-.157c.491-.563.76-1.275.76-2.03 0-.65-.2-1.269-.57-1.788.556-.398 1.235-.552 1.749-.383.423.138.71.487.832 1.01.02.086.088.154.175.175.5.116.842.385.992.78.193.509.052 1.212-.358 1.79a.234.234 0 1 0 .382.271c.506-.713.665-1.567.414-2.228ZM3.108 1.019h2.667a.372.372 0 0 1 0 .742H3.108a.372.372 0 0 1 0-.742ZM6.68 5.545c.302-1.046.832-1.954 1.494-2.558.63-.576 1.3-.8 1.886-.63.54.155.97.642 1.21 1.37.24.725.271 1.625.093 2.547l-1.008.36-1.736-.62a.234.234 0 0 0-.158 0l-1.735.62-.252-.09a6.55 6.55 0 0 1 .206-.999Zm3.085 10.536c.124-.079.244-.166.358-.263.109.097.223.185.343.263h-.701Zm.216-.768a2.605 2.605 0 0 1-1.855.768c-.7 0-1.359-.273-1.854-.768-.616-.617-.913-1.515-.721-2.186.14-.489.524-.82 1.113-.956a.235.235 0 0 0 .175-.175c.137-.589.467-.973.956-1.113.136-.04.282-.058.433-.058.591 0 1.262.288 1.753.78.495.494.768 1.153.768 1.853s-.273 1.36-.768 1.855Zm.331-4.04c-.743-.743-1.806-1.08-2.646-.84-.534.152-.937.527-1.161 1.07a1.888 1.888 0 0 1-.382-1.175.234.234 0 1 0-.468 0c0 .728.283 1.223.517 1.509-.544.224-.92.627-1.072 1.161-.24.84.098 1.903.84 2.646.168.168.352.314.548.437h-4.97V6.567l1.5.537a.234.234 0 0 0 .158 0l1.736-.62 1.735.62a.234.234 0 0 0 .158 0l1.735-.62 1.736.62a.235.235 0 0 0 .158 0l1.501-.537v4.183c-.53.002-1.098.199-1.587.56a3.055 3.055 0 0 0-.036-.037Z"/></g><defs><clipPath id="a"><path fill="#fff" transform="translate(0 .55)" d="M0 0h16v16H0z"/></clipPath></defs></svg>