<svg width="19" height="15" fill="none" xmlns="http://www.w3.org/2000/svg"><g clip-path="url(#a)"><path d="m6.779 5.917 5.484 3.023M8.346 2.418 6.426 1.36a.488.488 0 0 0-.648.166l-3.484 5.76a.442.442 0 0 0 .174.619l1.92 1.058c.227.125.518.05.649-.166l3.483-5.76a.442.442 0 0 0-.174-.619Zm8.228 4.534-1.92-1.058a.488.488 0 0 0-.649.166l-3.483 5.76a.442.442 0 0 0 .174.619l1.92 1.058c.226.125.517.05.648-.166l3.483-5.76a.442.442 0 0 0-.173-.619ZM1.029 4.842l1.9-3.14a.488.488 0 0 1 .65-.166l1.233.68a.442.442 0 0 1 .174.62l-1.9 3.14a.488.488 0 0 1-.649.166l-1.234-.68a.442.442 0 0 1-.174-.62Zm15.084 8.313 1.9-3.141a.442.442 0 0 0-.174-.62l-1.234-.68a.488.488 0 0 0-.65.167l-1.9 3.14a.442.442 0 0 0 .175.62l1.234.68c.227.126.517.051.649-.166Z" stroke="#222" stroke-width="1.25" stroke-linecap="round" stroke-linejoin="round"/></g><defs><clipPath id="a"><path fill="#fff" d="M0 0h19v15H0z"/></clipPath></defs></svg>