<svg width="65" height="66" fill="none" xmlns="http://www.w3.org/2000/svg"><g clip-path="url(#a)" fill="#BEAD8E"><path d="M22.072 37.244a.947.947 0 0 0-1.239.52c-.038.088-.982 2.192-4.151 2.192-3.207 0-4.35-2.14-4.406-2.25a.952.952 0 0 0-1.709.842c.066.135 1.669 3.312 6.114 3.312 4.492 0 5.857-3.233 5.913-3.371a.956.956 0 0 0-.522-1.245ZM13.18 32.95a.951.951 0 0 0 .906-1.674c-.078-.044-1.96-1.047-4.432-.215a.952.952 0 1 0 .608 1.804c1.643-.553 2.852.052 2.918.085ZM23.48 31.06c-2.471-.831-4.353.173-4.432.216a.952.952 0 1 0 .905 1.675c.051-.026 1.266-.642 2.92-.086a.953.953 0 0 0 .608-1.804ZM36.35 12.49c-1.558 0-2.835 1.193-2.907 2.718a2.859 2.859 0 0 0 .727 2.042 2.86 2.86 0 0 0-.727 2.042 2.845 2.845 0 0 0 1.605 2.42 2.88 2.88 0 0 0-.316 1.354c.005 1.182.769 2.192 1.835 2.582a2.77 2.77 0 0 0-.268 1.147c-.016.737.264 1.439.79 1.975a2.86 2.86 0 0 0 2.03.858h13.49a4.138 4.138 0 0 0 4.132-4.134V19c0-2.158-2.182-4.141-4.54-5.963A8.326 8.326 0 0 1 49.56 9.54L47.97 5.57c-.526-1.367-2.354-.894-2.956-.738a2.525 2.525 0 0 0-1.584 1.232c-.53.953-.545 2.254-.045 3.868l.53 2.044c-1.251.364-2.86.481-4.023.515H36.35Zm3.582 1.903c1.353-.037 3.281-.184 4.777-.67a1.675 1.675 0 0 0 1.104-2.01l-.59-2.282a1.024 1.024 0 0 0-.013-.045c-.267-.855-.57-2.491.282-2.712a4.4 4.4 0 0 1 .81-.15l1.488 3.724a10.236 10.236 0 0 0 3.247 4.295c1.039.803 3.8 2.936 3.8 4.456v6.496c0 1.229-1 2.229-2.229 2.229H39.12c-.487 0-.927-.398-.916-.887.003-.16.014-.647.849-.953a1.014 1.014 0 0 0-.351-1.969H37.54c-.48 0-.903-.4-.903-.855 0-.458.277-1.05.932-1.05l1.378.001a.952.952 0 1 0 0-1.904H36.35c-.53 0-.981-.406-1.005-.905a.955.955 0 0 1 .78-.985c.167-.03.415-.007 2.493-.014a.952.952 0 1 0 0-1.905h-2.322a.954.954 0 0 1-.951-1c.024-.498.475-.904 1.005-.904h3.582Z"/><path d="M55.255.5h-14.63a.952.952 0 0 0 0 1.904h14.63c4.323 0 7.84 3.507 7.84 7.817v21.116c0 4.31-3.517 7.816-7.84 7.816H44.243a.952.952 0 0 0-.952.952c0 1.803-.409 4.083-3.405 4.909 1.04-1.609.94-3.826.616-5.138a.953.953 0 0 0-.924-.723H28.425c.223-.743.379-1.515.458-2.31 2.747.497 4.252-2.427 4.252-5.367 0-2.05-.703-3.61-1.898-4.363.579-1.227.825-2.864-.16-4.787.145-4.59-1.728-6.966-3.343-8.154a8.121 8.121 0 0 0-3.348-1.43c-.53-.519-1.817-1.552-4.073-2.102v-.42c0-4.31 3.517-7.816 7.84-7.816h8.41a.952.952 0 1 0 0-1.904h-8.41c-5.373 0-9.745 4.361-9.745 9.72v.111c-1.626-.141-3.606-.029-5.987.545-1.5.361-2.867.829-4.063 1.39a.952.952 0 1 0 .807 1.724c1.082-.507 2.327-.932 3.702-1.263 2.625-.632 4.663-.652 6.21-.405a.95.95 0 0 0 .239.04c2.684.493 3.79 1.785 3.858 1.866.165.209.41.34.676.36.014.001 1.414.132 2.755 1.118 1.849 1.36 2.71 3.646 2.559 6.796a.953.953 0 0 0 .12.51c.779 1.39.733 2.672-.136 3.92-.61.872-1.434 1.435-1.656 1.577-.098.03-.339.09-.53.002-.215-.1-.35-.4-.426-.634-.6-1.85-1.406-2.594-2.117-3.25-.705-.652-1.314-1.215-1.869-3.045a.952.952 0 0 0-1.74-.19c-.364.645-1.47 2.61-6.175 2.442-3.944-.144-7.183 1.252-8.456 3.64-.355.665-.664.902-.805.96-3.134-1.831-1.85-4.63-1.691-4.943a.953.953 0 0 0 .076-.67c-.009-.037-.89-3.703 2.293-6.757a.952.952 0 0 0-1.319-1.374c-3.397 3.26-3.082 7.09-2.889 8.252a6.253 6.253 0 0 0-.447 2.409c.012.552.107 1.189.37 1.846C.643 27.977 0 29.494 0 31.477c0 2.988 1.546 5.854 4.25 5.367a12.277 12.277 0 0 0 3.565 7.51 12.32 12.32 0 0 0 4.626 2.925v1.748l-3.506 1.177a.952.952 0 0 0-.55.483C3.867 52.244.762 56.963.762 62.401v2.146c0 .526.426.952.952.952H31.42a.952.952 0 0 0 .952-.952v-2.146c0-1.457-.223-2.883-.662-4.239a.952.952 0 1 0-1.811.588c.377 1.165.569 2.393.569 3.651v1.194H19.497l3.102-2.255a.952.952 0 0 0 .392-.77v-1.956l1.464-1.061a.953.953 0 0 0 .394-.771v-4.009c1.262.579 2.395 1.49 3.323 2.685a.951.951 0 1 0 1.504-1.17c-1.331-1.711-3.025-2.946-4.927-3.603a.95.95 0 0 0-.55-.482l-3.506-1.177v-1.754a12.446 12.446 0 0 0 6.99-6.227c.157.007.314.011.47.011h10.616c.042.394.067.905.006 1.434-.153 1.333-.752 2.128-1.831 2.43-.58.162-.955.737-.873 1.337.078.566.55.977 1.121.977 2.345 0 4.212-.504 5.548-1.5 1.417-1.055 2.227-2.626 2.414-4.678h10.101c5.373 0 9.745-4.36 9.745-9.72V10.221C65 4.86 60.628.5 55.255.5Zm-26.31 34.392v-5.076a8.445 8.445 0 0 0 1.225-1.118c.772.446 1.06 1.665 1.06 2.779 0 1.692-.731 4.022-2.285 3.415Zm-27.04-3.416c0-1.017.244-2.15.894-2.666.367.395.824.779 1.39 1.133v4.95c-1.557.607-2.285-1.724-2.285-3.416Zm8.285 20.315 2.192-.735 2.664 11.209-2.998-2.18V58.13a.952.952 0 0 0-.394-.771l-1.464-1.062v-4.506Zm4.388.267h3.979l-1.99 8.371-1.99-8.37ZM2.666 62.402c0-4.324 2.257-8.098 5.62-9.63v4.01c0 .306.146.592.393.771l1.464 1.062v1.956c0 .304.146.59.393.77l3.102 2.255H2.666v-1.194Zm20.278-10.61v4.505L21.48 57.36a.952.952 0 0 0-.393.77v1.957l-2.999 2.179 2.664-11.21 2.192.736Zm-4.155-1.638h-4.443v-2.372a12.48 12.48 0 0 0 4.443-.002v2.374Zm-9.628-7.146a10.402 10.402 0 0 1-3.067-7.406v-5.401c.545-.223 1.18-.734 1.765-1.832.914-1.713 3.547-2.746 6.707-2.632 3.015.109 5.29-.555 6.79-1.977.57 1.155 1.198 1.736 1.771 2.265.643.594 1.15 1.063 1.598 2.44.356 1.098.997 1.58 1.473 1.79.29.129.578.185.843.2v5.148c0 9.269-11.302 13.987-17.88 7.405Z"/></g><defs><clipPath id="a"><path fill="#fff" transform="translate(0 .5)" d="M0 0h65v65H0z"/></clipPath></defs></svg>