<svg width="16" height="17" fill="none" xmlns="http://www.w3.org/2000/svg"><g clip-path="url(#a)" fill="#BEAD8E"><path d="M15.688 6.425h-3.032a.312.312 0 1 0 0 .625h2.719v2.625h-8.25V7.05h2.719a.312.312 0 1 0 0-.625H5.465c.318-.478.51-1.027.562-1.605h.188a.313.313 0 0 0 0-.625H6.04v-.207a.312.312 0 0 0-.313-.313H1.397a.312.312 0 0 0-.313.313v.207H.91a.312.312 0 1 0 0 .625h.188c.05.578.243 1.127.56 1.605H.313A.312.312 0 0 0 0 6.738v9.5c0 .172.14.312.313.312h15.374c.173 0 .313-.14.313-.313v-9.5a.312.312 0 0 0-.313-.312ZM1.709 4.51V4.3h3.707v.207c0 .716-.262 1.392-.741 1.918H2.447A2.832 2.832 0 0 1 1.71 4.51Zm.604 2.54H6.5v2.625H.625V7.05h1.688ZM.625 10.3H6.5v5.625H.625V10.3Zm6.5 0h3.813v5.625H7.124V10.3Zm4.438 5.625V10.3h3.812v5.625h-3.813Z"/><path d="M10.781 8.363c0 .172.14.312.313.312h.312a.313.313 0 1 0 0-.625h-.312a.313.313 0 0 0-.313.313ZM2.063 8.675a.315.315 0 0 0 .312-.312.315.315 0 0 0-.313-.313.315.315 0 0 0-.312.313.315.315 0 0 0 .313.312ZM3.563 8.675a.315.315 0 0 0 .312-.312.315.315 0 0 0-.313-.313.314.314 0 0 0-.312.313.315.315 0 0 0 .313.312ZM5.063 8.675a.315.315 0 0 0 .312-.312.315.315 0 0 0-.313-.313.314.314 0 0 0-.312.313.313.313 0 0 0 .313.312ZM12.642 12.644a.312.312 0 0 0-.313.312v.313a.312.312 0 1 0 .625 0v-.313a.312.312 0 0 0-.312-.312ZM9.858 12.644a.312.312 0 0 0-.312.312v.313a.312.312 0 1 0 .625 0v-.313a.312.312 0 0 0-.313-.312ZM5.563 10.8h-4a.312.312 0 0 0-.313.313v4c0 .172.14.312.313.312h4c.172 0 .312-.14.312-.313v-4a.312.312 0 0 0-.313-.312Zm-2.246.625-1.442 1.442v-1.442h1.442ZM1.875 13.75 4.2 11.425h1.05v.458L2.333 14.8h-.458v-1.05Zm1.342 1.05 2.033-2.033V14.8H3.217ZM7.996 1.8h3.625v1.672a1.064 1.064 0 1 0 1.375 1.016c0-.478-.316-.882-.75-1.016V1.8h2.375v1.672a1.064 1.064 0 1 0 1.375 1.016c0-.478-.316-.882-.75-1.016V1.8h.438a.312.312 0 1 0 0-.625h-.438V.863a.312.312 0 1 0-.625 0v.312h-2.375V.863a.312.312 0 1 0-.625 0v.312H7.996a.313.313 0 0 0 0 .625Zm3.938 3.125a.438.438 0 1 1 0-.876.438.438 0 0 1 0 .876Zm3 0a.438.438 0 1 1 0-.876.438.438 0 0 1 0 .876ZM11.47 6.958a.315.315 0 0 0 0-.441.315.315 0 0 0-.44 0 .315.315 0 0 0 0 .441.314.314 0 0 0 .44 0Z"/></g><defs><clipPath id="a"><path fill="#fff" transform="translate(0 .55)" d="M0 0h16v16H0z"/></clipPath></defs></svg>