<svg width="52" height="70" fill="none" xmlns="http://www.w3.org/2000/svg"><path d="M43.688 48.356a1.02 1.02 0 0 1-.895-1.506c4.19-7.719 6.313-15.022 6.313-21.705 0-12.74-10.365-23.106-23.106-23.106a23.28 23.28 0 0 0-4.588.455 1.02 1.02 0 0 1-.403-1.999A25.337 25.337 0 0 1 26 0c13.865 0 25.145 11.28 25.145 25.145 0 7.027-2.207 14.657-6.56 22.678-.184.34-.535.533-.897.533ZM26 70a3.956 3.956 0 0 1-2.85-1.2c-2.909-2.975-8.51-9.125-13.347-16.883C3.866 42.394.855 33.387.855 25.145A25.11 25.11 0 0 1 16.212 1.976a1.02 1.02 0 1 1 .795 1.878 23.075 23.075 0 0 0-14.113 21.29c0 18.574 16.62 37.02 21.713 42.23.37.379.865.587 1.393.587s1.023-.208 1.393-.587c2.83-2.895 8.283-8.879 13.004-16.424a1.02 1.02 0 0 1 1.728 1.082C37.303 59.739 31.738 65.846 28.851 68.8A3.956 3.956 0 0 1 26 70Z" fill="#BEAD8E"/><path d="M26 36.631c-2.6 0-5.06-.836-7.116-2.419a1.02 1.02 0 1 1 1.244-1.615A9.543 9.543 0 0 0 26 34.592c5.313 0 9.634-4.322 9.634-9.634 0-5.313-4.322-9.635-9.634-9.635-5.313 0-9.634 4.322-9.634 9.635 0 1.484.328 2.907.975 4.23a1.02 1.02 0 0 1-1.831.896 11.562 11.562 0 0 1-1.183-5.126c0-6.437 5.236-11.674 11.673-11.674s11.673 5.237 11.673 11.674c0 6.437-5.236 11.673-11.673 11.673Z" fill="#BEAD8E"/></svg>