<svg width="68" height="67" fill="none" xmlns="http://www.w3.org/2000/svg"><g clip-path="url(#a)" fill="#BEAD8E"><path d="M33.66 12.216c-1.835 0-3.6.544-5.107 1.573a.967.967 0 0 0-.251 1.35.983.983 0 0 0 1.36.25 7.057 7.057 0 0 1 3.998-1.23c3.894 0 7.061 3.144 7.061 7.008s-3.167 7.008-7.061 7.008-7.061-3.144-7.061-7.008c0-1.14.266-2.227.792-3.23a.968.968 0 0 0-.416-1.31.982.982 0 0 0-1.32.414 8.922 8.922 0 0 0-1.013 4.126c0 4.935 4.045 8.95 9.018 8.95 4.973 0 9.018-4.015 9.018-8.95s-4.045-8.95-9.018-8.95Z"/><path d="m67.085 64.846-9.658-23.032a.978.978 0 0 0-.904-.597H46.9c1.872-2.514 3.43-5.017 4.647-7.475 2.157-4.357 3.25-8.587 3.25-12.575C54.796 9.6 45.314.19 33.66.19 22.005.19 12.524 9.6 12.524 21.167c0 3.988 1.093 8.218 3.25 12.574 1.217 2.459 2.775 4.962 4.647 7.475h-9.625a.978.978 0 0 0-.903.598L3.312 57.508a.968.968 0 0 0 .527 1.27.982.982 0 0 0 1.28-.523l.939-2.24h6.661l-3.452 8.233H2.606l1-2.387a.968.968 0 0 0-.527-1.27.98.98 0 0 0-1.28.524l-1.564 3.73a.964.964 0 0 0 .09.913.98.98 0 0 0 .813.432h65.043a.98.98 0 0 0 .814-.432.965.965 0 0 0 .09-.912ZM14.48 21.167c0-10.496 8.604-19.035 19.179-19.035s19.179 8.54 19.179 19.035c0 4.401-1.541 11.434-8.669 20.397l-.02.026c-.364.457-.743.92-1.136 1.386-3.917 4.65-7.881 8.044-9.354 9.25-1.47-1.202-5.414-4.58-9.328-9.22a64.85 64.85 0 0 1-1.163-1.419l-.018-.022c-7.128-8.962-8.67-15.995-8.67-20.398Zm-3.032 21.992h6.662l-2.43 5.794H9.019l2.43-5.794Zm5.722 21.089 6.117-14.586 17.406 14.586H17.17Zm26.557 0L23.529 47.322a.984.984 0 0 0-1.534.369l-6.943 16.556h-3.665l3.703-8.83a.965.965 0 0 0-.09-.912.98.98 0 0 0-.814-.432H6.872l1.333-3.178h8.129a.978.978 0 0 0 .903-.598l2.994-7.138h1.698c.295.365.594.73.902 1.094 5.05 5.985 10.02 9.828 10.23 9.989a.982.982 0 0 0 1.198 0c.115-.089 1.67-1.29 3.883-3.347h11.081c.54 0 .979-.434.979-.97a.975.975 0 0 0-.979-.972h-9.065a74.895 74.895 0 0 0 4.331-4.7c.308-.364.608-.73.902-1.094h10.48l2.43 5.794h-5.164a.975.975 0 0 0-.978.971c0 .537.438.971.978.971h5.978l1.332 3.178H40.286a.978.978 0 0 0-.917.631.967.967 0 0 0 .275 1.074l9.832 8.47h-5.748Zm8.734 0-9.556-8.233h18.356l3.452 8.233H52.462Z"/></g><defs><clipPath id="a"><path fill="#fff" transform="translate(.16 .19)" d="M0 0h67v66H0z"/></clipPath></defs></svg>