<svg width="16" height="17" fill="none" xmlns="http://www.w3.org/2000/svg"><g clip-path="url(#a)" fill="#BEAD8E"><path d="M13.418 7.244a.324.324 0 0 0-.458 0 2.59 2.59 0 0 1-2.266.72.324.324 0 0 0-.11.637 3.238 3.238 0 0 0 2.833-.9.323.323 0 0 0 0-.457Z"/><path d="M14.576 1.974a4.875 4.875 0 0 0-6.886 0 4.881 4.881 0 0 0-1.05 5.32L.094 13.838a.323.323 0 0 0-.095.245l.101 2.059c.008.166.141.299.308.307l2.058.1.016.001a.323.323 0 0 0 .229-.095l.706-.705a.323.323 0 0 0 .094-.23v-1.513h1.515a.323.323 0 0 0 .228-.095l.792-.792a.323.323 0 0 0 .094-.228v-1.514h1.515a.323.323 0 0 0 .228-.095L9.256 9.91a4.882 4.882 0 0 0 5.32-1.05 4.875 4.875 0 0 0 0-6.887Zm-.457 6.429a4.232 4.232 0 0 1-4.796.83.323.323 0 0 0-.367.063l-1.434 1.435H5.818a.323.323 0 0 0-.323.323v1.704l-.602.602H3.189a.323.323 0 0 0-.323.323v1.704l-.51.51-1.623-.08-.08-1.623 6.6-6.6a.323.323 0 0 0 .064-.367 4.232 4.232 0 0 1 .83-4.796 4.227 4.227 0 0 1 5.972 0 4.228 4.228 0 0 1 0 5.972Z"/><path d="M12.893 3.656a1.5 1.5 0 0 0-1.067-.442 1.512 1.512 0 0 0-1.068 2.578c.294.294.68.441 1.068.441.386 0 .773-.147 1.067-.44a1.5 1.5 0 0 0 .443-1.069 1.5 1.5 0 0 0-.443-1.068Zm-.457 1.679a.865.865 0 0 1-1.22 0 .865.865 0 0 1 .61-1.474c.23 0 .447.09.61.253.163.163.253.38.253.61 0 .23-.09.448-.253.61ZM13.787 6.429c-.416 0-.417.647 0 .647.416 0 .417-.647 0-.647Z"/></g><defs><clipPath id="a"><path fill="#fff" transform="translate(0 .55)" d="M0 0h16v16H0z"/></clipPath></defs></svg>