<svg width="55" height="67" fill="none" xmlns="http://www.w3.org/2000/svg"><path d="M33.347 26.021c-2.173 0-3.81.932-3.81 3.471v4.177c0 2.54 1.637 3.47 3.81 3.47 2.144 0 3.81-.93 3.81-3.47v-4.177c0-2.54-1.666-3.47-3.81-3.47Zm1.777 7.648c0 1.157-.677 1.665-1.777 1.665-1.1 0-1.75-.508-1.75-1.665v-4.177c0-1.157.65-1.665 1.75-1.665s1.777.508 1.777 1.665v4.177ZM32.246 15.326c-.338 0-.677.141-.846.508L21.043 36.575a.797.797 0 0 0-.113.424c0 .508.452 1.044 1.1 1.044.396 0 .791-.198.96-.536L33.347 16.85a1.17 1.17 0 0 0 .084-.451c0-.65-.62-1.073-1.185-1.073ZM20.874 16.427c-2.173 0-3.81.931-3.81 3.47v4.177c0 2.54 1.637 3.471 3.81 3.471 2.144 0 3.81-.931 3.81-3.47v-4.177c0-2.54-1.666-3.471-3.81-3.471Zm1.777 7.647c0 1.157-.677 1.665-1.777 1.665-1.1 0-1.75-.508-1.75-1.665v-4.176c0-1.157.65-1.665 1.75-1.665s1.777.508 1.777 1.665v4.176Z" fill="#BEAD8E"/><path d="M54.067 26.316a4.4 4.4 0 0 0 .776-3.372 4.4 4.4 0 0 0-1.883-2.904 2.464 2.464 0 0 1-.99-2.723 4.4 4.4 0 0 0-.425-3.434 4.4 4.4 0 0 0-2.762-2.085 2.465 2.465 0 0 1-1.863-2.22 4.4 4.4 0 0 0-1.573-3.082 4.4 4.4 0 0 0-3.309-1.014 2.465 2.465 0 0 1-2.509-1.45 4.4 4.4 0 0 0-2.533-2.358 4.4 4.4 0 0 0-3.456.179 2.465 2.465 0 0 1-2.853-.503A4.4 4.4 0 0 0 27.5 0a4.4 4.4 0 0 0-3.186 1.35 2.465 2.465 0 0 1-2.854.503 4.4 4.4 0 0 0-3.456-.179 4.4 4.4 0 0 0-2.533 2.359 2.464 2.464 0 0 1-2.51 1.449 4.399 4.399 0 0 0-3.308 1.014A4.4 4.4 0 0 0 8.08 9.578a2.464 2.464 0 0 1-1.863 2.22 4.4 4.4 0 0 0-2.762 2.085 4.4 4.4 0 0 0-.424 3.434 2.465 2.465 0 0 1-.991 2.723 4.4 4.4 0 0 0-1.883 2.904 4.4 4.4 0 0 0 .776 3.372 2.465 2.465 0 0 1 0 2.898 4.4 4.4 0 0 0-.776 3.373A4.4 4.4 0 0 0 2.04 35.49c.886.6 1.284 1.694.99 2.723a4.4 4.4 0 0 0 .425 3.434 4.4 4.4 0 0 0 2.762 2.085 2.464 2.464 0 0 1 1.863 2.22 4.4 4.4 0 0 0 1.573 3.082 4.4 4.4 0 0 0 3.309 1.014 2.464 2.464 0 0 1 2.51 1.45 4.4 4.4 0 0 0 2.532 2.358 4.399 4.399 0 0 0 3.456-.179 2.465 2.465 0 0 1 2.853.503 4.4 4.4 0 0 0 3.187 1.35 4.4 4.4 0 0 0 3.186-1.35 2.465 2.465 0 0 1 2.854-.503 4.4 4.4 0 0 0 3.456.179 4.4 4.4 0 0 0 2.533-2.359 2.464 2.464 0 0 1 2.51-1.449 4.4 4.4 0 0 0 3.308-1.014 4.4 4.4 0 0 0 1.573-3.082 2.465 2.465 0 0 1 1.863-2.22 4.4 4.4 0 0 0 2.762-2.084 4.4 4.4 0 0 0 .424-3.435 2.465 2.465 0 0 1 .991-2.723 4.4 4.4 0 0 0 1.883-2.903 4.4 4.4 0 0 0-.776-3.373 2.465 2.465 0 0 1 0-2.898Zm-1.592 4.051a2.45 2.45 0 0 1 .432 1.878 2.449 2.449 0 0 1-1.048 1.616 4.427 4.427 0 0 0-1.78 4.891 2.45 2.45 0 0 1-.237 1.912 2.449 2.449 0 0 1-1.537 1.16 4.427 4.427 0 0 0-3.346 3.988 2.45 2.45 0 0 1-.876 1.716 2.45 2.45 0 0 1-1.842.565 4.428 4.428 0 0 0-4.507 2.602 2.45 2.45 0 0 1-1.41 1.313 2.45 2.45 0 0 1-1.924-.1 4.427 4.427 0 0 0-5.126.904 2.45 2.45 0 0 1-1.774.752 2.45 2.45 0 0 1-1.774-.752 4.427 4.427 0 0 0-5.125-.903 2.45 2.45 0 0 1-1.925.1 2.45 2.45 0 0 1-1.41-1.314 4.428 4.428 0 0 0-4.507-2.602 2.45 2.45 0 0 1-1.842-.565 2.449 2.449 0 0 1-.876-1.716 4.427 4.427 0 0 0-3.345-3.987 2.45 2.45 0 0 1-1.538-1.16 2.45 2.45 0 0 1-.236-1.913 4.427 4.427 0 0 0-1.78-4.89 2.45 2.45 0 0 1-1.049-1.617 2.449 2.449 0 0 1 .433-1.877 4.427 4.427 0 0 0 0-5.205 2.45 2.45 0 0 1-.433-1.878 2.45 2.45 0 0 1 1.049-1.616 4.427 4.427 0 0 0 1.78-4.891 2.45 2.45 0 0 1 .236-1.912 2.45 2.45 0 0 1 1.538-1.16 4.427 4.427 0 0 0 3.345-3.988 2.45 2.45 0 0 1 .876-1.716 2.45 2.45 0 0 1 1.842-.564 4.427 4.427 0 0 0 4.508-2.603 2.45 2.45 0 0 1 1.41-1.313 2.45 2.45 0 0 1 1.924.1 4.427 4.427 0 0 0 5.125-.904 2.45 2.45 0 0 1 1.774-.751 2.45 2.45 0 0 1 1.774.751 4.427 4.427 0 0 0 5.126.904 2.45 2.45 0 0 1 1.924-.1 2.45 2.45 0 0 1 1.41 1.313 4.427 4.427 0 0 0 4.507 2.603 2.451 2.451 0 0 1 1.842.564 2.45 2.45 0 0 1 .876 1.716 4.427 4.427 0 0 0 3.346 3.987 2.45 2.45 0 0 1 1.538 1.16 2.45 2.45 0 0 1 .236 1.913 4.427 4.427 0 0 0 1.78 4.89 2.45 2.45 0 0 1 1.048 1.617 2.45 2.45 0 0 1-.432 1.878 4.426 4.426 0 0 0 0 5.204Z" fill="#BEAD8E"/><path d="M47.273 29.138A.984.984 0 0 0 46.18 30C45.063 39.45 37.032 46.577 27.5 46.577c-9.532 0-17.563-7.127-18.68-16.578a.984.984 0 0 0-1.953.231C8.1 40.67 16.972 48.543 27.5 48.543c10.528 0 19.399-7.873 20.633-18.313a.983.983 0 0 0-.86-1.092ZM48.148 25.43C46.972 14.917 38.096 6.988 27.5 6.988c-10.595 0-19.472 7.929-20.648 18.444a.983.983 0 0 0 1.954.218C9.87 16.131 17.907 8.953 27.5 8.953c9.593 0 17.63 7.178 18.694 16.696a.983.983 0 1 0 1.954-.218ZM40.07 52.563a.983.983 0 0 0-.983.984V64.54L27.88 59.86a.983.983 0 0 0-.758 0l-11.208 4.68V53.547a.983.983 0 0 0-1.966 0v12.47a.983.983 0 0 0 1.362.907l12.191-5.09 12.191 5.09a.981.981 0 0 0 1.362-.907v-12.47a.983.983 0 0 0-.983-.983Z" fill="#BEAD8E"/></svg>