<svg width="71" height="58" fill="none" xmlns="http://www.w3.org/2000/svg"><path d="M37.855 40.08h18.927c.71 0 1.183-.466 1.183-1.166V28.417c0-.7-.473-1.166-1.183-1.166H37.855c-.71 0-1.183.466-1.183 1.166v10.497c0 .7.473 1.166 1.183 1.166Zm1.183-10.496h16.561v8.164H39.038v-8.164ZM5.915 24.918h9.464c.71 0 1.182-.466 1.182-1.166s-.473-1.167-1.182-1.167H5.915c-.71 0-1.183.467-1.183 1.167s.473 1.166 1.183 1.166ZM20.11 24.918h9.464c.71 0 1.183-.466 1.183-1.166s-.473-1.167-1.183-1.167H20.11c-.71 0-1.183.467-1.183 1.167s.474 1.166 1.183 1.166ZM5.915 29.584h15.378c.71 0 1.183-.467 1.183-1.167s-.473-1.166-1.183-1.166H5.915c-.71 0-1.183.466-1.183 1.166s.473 1.166 1.183 1.166ZM29.574 27.25h-3.549c-.71 0-1.183.467-1.183 1.167s.473 1.166 1.183 1.166h3.549c.71 0 1.183-.466 1.183-1.166s-.473-1.167-1.183-1.167Z" fill="#BEAD8E"/><path d="M69.913 12.789c-.828-1.05-1.892-1.633-3.194-1.75l-2.839-.34V5.092c0-2.566-2.13-4.665-4.732-4.665H4.732C2.129.426 0 2.525 0 5.09v37.322c0 2.106 1.436 3.897 3.39 4.471-.06 2.36 1.75 4.408 4.181 4.626l54.653 6.065h.473c2.366 0 4.495-1.75 4.732-3.966l3.549-37.438c.118-1.166-.237-2.45-1.065-3.382Zm-67.547-4.2h59.148V15.589H2.366V8.59Zm2.366-5.83h54.416c1.301 0 2.366 1.049 2.366 2.332v1.166H2.366V5.091c0-1.283 1.065-2.333 2.366-2.333ZM2.366 42.412V17.92h59.148v24.492c0 1.284-1.065 2.333-2.366 2.333H4.732c-1.301 0-2.366-1.05-2.366-2.332Zm66.246-26.709-3.549 37.439c-.118 1.282-1.301 2.215-2.602 2.099L7.926 49.177a2.375 2.375 0 0 1-2.13-2.1h53.352c2.603 0 4.732-2.099 4.732-4.664V12.905l2.72.233c.592 0 1.184.35 1.539.817.355.466.591 1.166.473 1.75Z" fill="#BEAD8E"/></svg>