<svg width="16" height="16" fill="none" xmlns="http://www.w3.org/2000/svg"><path d="M15.075 11.838c-.248-.405-.633-.877-1.086-1.329-.327-.328-1.452-1.395-2.175-1.395-.232 0-.379.099-.461.181l-.963.962c-.016.016-.068.035-.16.035-.535 0-1.668-.591-2.8-1.722C5.921 7.06 5.56 5.794 5.743 5.61l.962-.962a.633.633 0 0 0 .182-.462c0-.723-1.068-1.848-1.396-2.175C5.164 1.683 4.041.615 3.316.615a.633.633 0 0 0-.461.182L.93 2.722C.36 3.29.569 4.4 1.546 6.024c.849 1.409 2.192 3.06 3.781 4.649 2.819 2.819 5.673 4.712 7.102 4.712.355 0 .64-.106.85-.315l1.924-1.925c.417-.416.007-1.087-.128-1.307Zm-2.45 2.58c-.02.02-.083.043-.196.043-.973 0-3.564-1.556-6.45-4.44-1.537-1.538-2.83-3.127-3.642-4.474-.914-1.516-.828-2.1-.754-2.173l1.811-1.812c.237.092.784.44 1.445 1.101.66.661 1.01 1.208 1.1 1.445l-.849.85c-.885.885.255 2.83 1.688 4.264 1.23 1.23 2.552 1.993 3.451 1.993.42 0 .674-.166.814-.305l.85-.85c.236.092.783.441 1.444 1.102.66.66 1.01 1.208 1.1 1.444l-1.811 1.812Z" fill="#BEAD8E"/></svg>