<svg width="40" height="40" fill="none" xmlns="http://www.w3.org/2000/svg"><path d="m38.95 30.858-8.096-5.4a2.363 2.363 0 0 0-3.164.515l-2.358 3.032c-.303.4-.854.515-1.293.272l-.448-.248c-1.488-.81-3.338-1.82-7.066-5.549-3.728-3.73-4.74-5.58-5.55-7.065l-.246-.449a1.01 1.01 0 0 1 .267-1.297l3.03-2.358a2.364 2.364 0 0 0 .515-3.164l-5.4-8.096A2.35 2.35 0 0 0 5.973.338L2.587 2.37A4.776 4.776 0 0 0 .41 5.198C-.81 9.64.107 17.306 11.4 28.6c8.984 8.983 15.671 11.398 20.268 11.398a11.812 11.812 0 0 0 3.133-.409 4.771 4.771 0 0 0 2.826-2.177l2.036-3.384a2.351 2.351 0 0 0-.713-3.17Zm-.436 2.486-2.03 3.386a3.445 3.445 0 0 1-2.034 1.576c-4.1 1.125-11.265.193-22.106-10.649C1.502 16.815.569 9.652 1.695 5.55a3.45 3.45 0 0 1 1.578-2.035l3.386-2.031a1.02 1.02 0 0 1 1.375.309l2.933 4.403 2.461 3.692a1.026 1.026 0 0 1-.222 1.373l-3.031 2.358a2.333 2.333 0 0 0-.618 2.994l.24.438c.852 1.562 1.912 3.506 5.778 7.372 3.867 3.866 5.81 4.925 7.372 5.777l.438.241a2.333 2.333 0 0 0 2.994-.618l2.358-3.03c.33-.42.927-.518 1.373-.223l8.095 5.4c.455.3.591.907.31 1.374ZM22.665 6.67c6.256.007 11.325 5.076 11.332 11.332a.667.667 0 0 0 1.333 0c-.008-6.992-5.673-12.657-12.665-12.665a.667.667 0 0 0 0 1.333Z" fill="#BEAD8E"/><path d="M22.665 10.67a7.34 7.34 0 0 1 7.333 7.332.667.667 0 0 0 1.333 0 8.675 8.675 0 0 0-8.666-8.666.667.667 0 0 0 0 1.333Z" fill="#BEAD8E"/><path d="M22.665 14.669a3.337 3.337 0 0 1 3.333 3.333.667.667 0 0 0 1.333 0 4.671 4.671 0 0 0-4.666-4.666.667.667 0 0 0 0 1.333Z" fill="#BEAD8E"/></svg>