<svg width="60" height="66" fill="none" xmlns="http://www.w3.org/2000/svg"><path d="m57.67 14.161-3.852-.56-1.723-3.49c-.58-1.18-2.263-1.179-2.845 0l-1.722 3.49-3.853.56c-1.3.19-1.82 1.789-.879 2.706l2.788 2.717-.658 3.837c-.223 1.3 1.143 2.281 2.302 1.672l3.445-1.811 3.446 1.811c1.162.612 2.523-.376 2.301-1.672l-.658-3.837 2.788-2.717c.941-.917.421-2.517-.88-2.706Zm-3.357 4.176c-.374.365-.544.89-.456 1.404l.578 3.367-3.024-1.59a1.586 1.586 0 0 0-1.476 0l-3.023 1.59.577-3.367a1.585 1.585 0 0 0-.456-1.404l-2.446-2.384 3.38-.49c.517-.076.963-.4 1.194-.869l1.512-3.063 1.511 3.063c.231.468.678.793 1.195.868l3.38.491-2.446 2.384ZM7.006 10.11l-1.723 3.492-3.852.56C.13 14.35-.39 15.95.55 16.866l2.788 2.717-.658 3.837c-.223 1.3 1.143 2.281 2.301 1.672l3.446-1.811 3.446 1.811c1.162.612 2.524-.377 2.301-1.672l-.658-3.837 2.788-2.717c.941-.917.421-2.517-.88-2.706l-3.852-.56-1.722-3.49c-.582-1.179-2.264-1.179-2.845 0Zm2.934 4.484c.231.468.678.793 1.195.868l3.38.491-2.446 2.384c-.375.365-.545.89-.457 1.404l.577 3.367-3.023-1.59a1.585 1.585 0 0 0-1.476 0l-3.024 1.59.578-3.366a1.587 1.587 0 0 0-.456-1.405l-2.446-2.383 3.38-.492c.516-.075.963-.4 1.194-.868l1.512-3.062 1.512 3.062ZM13.115 61.196c0 .25-.204.455-.454.455H9.73a.952.952 0 1 0 0 1.904h2.93c1.162 0 2.129-.846 2.322-1.955h.675c3.325 0 3.228 3.9 8.479 3.9h16.707a3.677 3.677 0 0 0 3.672-3.672c0-.961-.371-1.837-.977-2.492.89-.648 1.487-1.672 1.525-2.823a3.645 3.645 0 0 0-.903-2.54c.953-.642 1.598-1.704 1.637-2.903a3.683 3.683 0 0 0-1.131-2.787c2.618-2.192 1.075-6.486-2.356-6.486H31.653c1.572-4.803 1.525-4.413 1.525-10.045 0-2.3-1.871-4.17-4.17-4.17a4.182 4.182 0 0 0-4.135 3.624c-.684 5.173-1.511 5.71-5.102 9.167a5.201 5.201 0 0 1-3.624 1.462h-1.253a2.362 2.362 0 0 0-2.233-1.606H2.36A2.362 2.362 0 0 0 0 42.59v18.607c0 1.301 1.058 2.36 2.36 2.36h2.928a.952.952 0 1 0 0-1.905H2.36a.455.455 0 0 1-.456-.455V42.588c0-.25.205-.455.456-.455h10.3c.252 0 .455.204.455.455v18.608Zm1.905-17.458h1.127c1.854 0 3.61-.708 4.945-1.993 3.792-3.652 4.908-4.529 5.669-10.29a2.272 2.272 0 0 1 2.246-1.97 2.269 2.269 0 0 1 2.266 2.267c0 5.556.096 4.79-1.64 10.092-.3.914.383 1.857 1.346 1.857H42.31c.976 0 1.77.79 1.77 1.762.001.977-.793 1.772-1.768 1.773h-4.557a.952.952 0 0 0 0 1.905H42.087c1.016 0 1.84.848 1.807 1.867-.03.942-.855 1.708-1.839 1.708-2.197 0 .662.001-4.299.001a.952.952 0 0 0 0 1.905c6.584 0 1.224-.001 3.638-.001.99 0 1.8.815 1.767 1.828-.032.941-.856 1.707-1.838 1.707h-3.567a.952.952 0 1 0 0 1.905h3.11a1.77 1.77 0 0 1 1.745 1.767 1.77 1.77 0 0 1-1.767 1.768H24.137c-4.425 0-4.025-3.9-8.477-3.9h-.64V43.738ZM37.176 13.768a.952.952 0 0 0 1.33 1.364l3.37-3.286c1.174-1.144.526-3.138-1.095-3.374l-6.497-.944a.072.072 0 0 1-.055-.04l-2.905-5.886c-.725-1.47-2.822-1.469-3.547 0l-2.905 5.886a.072.072 0 0 1-.055.04l-6.497.944c-1.62.236-2.268 2.23-1.096 3.374l4.701 4.582a.074.074 0 0 1 .022.065l-1.11 6.47c-.279 1.62 1.425 2.844 2.869 2.084l5.81-3.054a.073.073 0 0 1 .069 0l5.81 3.055c1.45.762 3.147-.47 2.87-2.085l-.726-4.23a.952.952 0 1 0-1.877.322l.726 4.23c.003.018.007.045-.03.072-.036.026-.06.014-.076.005l-5.81-3.055a1.978 1.978 0 0 0-1.842 0l-5.81 3.055c-.017.009-.04.02-.077-.005-.037-.027-.032-.054-.03-.072l1.11-6.47a1.976 1.976 0 0 0-.568-1.75l-4.701-4.583c-.013-.013-.033-.032-.018-.075.014-.043.04-.047.059-.05l6.496-.944a1.98 1.98 0 0 0 1.49-1.082l2.904-5.887c.009-.016.02-.04.066-.04s.057.024.066.04l2.905 5.887c.288.584.844.989 1.49 1.082l6.495.944c.02.003.045.007.06.05.013.043-.005.062-.019.075l-3.372 3.286Z" fill="#BEAD8E"/></svg>