<svg width="66" height="51" fill="none" xmlns="http://www.w3.org/2000/svg"><path d="M8.735 30.32a.976.976 0 0 0-.683-.282.977.977 0 0 0-.685.282.978.978 0 0 0-.282.684c0 .254.103.504.282.684.18.18.43.283.685.283a.973.973 0 0 0 .966-.967.973.973 0 0 0-.283-.684Z" fill="#BEAD8E"/><path d="M64.389 27.573h-2.616V25.72c0-.888-.723-1.61-1.612-1.61h-.699v-4.911h3.772c.474 0 .902-.206 1.174-.566.272-.359.355-.827.226-1.284l-2.13-7.547c-.212-.755-.965-1.324-1.75-1.324h-4.517c-.785 0-1.537.57-1.75 1.324l-2.13 7.548c-.128.456-.046.924.226 1.284.272.359.7.565 1.175.565h3.77v4.91h-.698c-.889 0-1.611.723-1.611 1.612v1.854h-2.241v-2.547c0-.889-.723-1.612-1.612-1.612h-26.1a.967.967 0 1 0 0 1.934h25.778v7.153H49.69V31.09c0-1.6-1.301-2.9-2.9-2.9H36.765c-1.6 0-2.9 1.3-2.9 2.9v1.412h-1.328V31.09c0-1.6-1.3-2.9-2.9-2.9H19.612c-1.6 0-2.9 1.3-2.9 2.9v1.412h-1.756v-7.153h5.927a.967.967 0 0 0 0-1.934h-6.25c-.888 0-1.61.723-1.61 1.612v2.546H10.78V25.72c0-.889-.723-1.612-1.611-1.612H8.47v-4.91h3.771c.475 0 .903-.206 1.175-.566.272-.359.354-.827.225-1.284l-2.129-7.547c-.213-.755-.965-1.324-1.75-1.324H5.245c-.784 0-1.537.57-1.75 1.324l-2.129 7.547c-.128.457-.046.925.226 1.284.272.36.7.566 1.174.566h3.771v4.91H5.84c-.889 0-1.612.723-1.612 1.612v1.853H1.611c-.888 0-1.611.723-1.611 1.612v11.647c0 .889.723 1.611 1.611 1.611h6.551v6.243c0 .889.723 1.612 1.612 1.612h4.428c.889 0 1.612-.723 1.612-1.612v-3.111h24.018a.967.967 0 1 0 0-1.934h-24.34c-.89 0-1.612.723-1.612 1.612v3.111h-3.784v-8.539h45.808v8.54H52.12v-3.112c0-.889-.723-1.612-1.611-1.612h-6.036a.967.967 0 1 0 0 1.934h5.714v3.111c0 .889.722 1.612 1.61 1.612h4.43c.888 0 1.61-.723 1.61-1.612v-6.243h6.552c.888 0 1.611-.722 1.611-1.611V29.185c0-.889-.723-1.612-1.611-1.612ZM54.39 17.264l1.933-6.854h4.343l1.934 6.854h-8.21Zm2.761 8.778h2.687v1.454h-2.687v-1.454ZM35.798 31.09c0-.533.434-.967.967-.967H46.79c.533 0 .967.434.967.967v1.412h-11.96V31.09Zm-16.186-.967h10.025c.533 0 .967.434.967.967v1.412H18.645V31.09c0-.533.434-.967.967-.967ZM3.399 17.264l1.934-6.854h4.343l1.933 6.854H3.4Zm2.762 8.778h2.687v1.454H6.16v-1.454Zm3.145 9.36v2.56a1.614 1.614 0 0 0-1.144 1.541v1.007H1.934v-5.92h7.489c-.076.257-.117.53-.117.812Zm-7.372-2.746v-3.149h11.088v2.994h-.816c-.325 0-.638.055-.93.155H1.934Zm52.827 5.236H11.239v-2.49c0-.533.434-.967.967-.967h41.588c.533 0 .967.434.967.967v2.49Zm9.305 2.618h-6.228v-1.007c0-.726-.483-1.34-1.144-1.541v-2.56a2.89 2.89 0 0 0-.117-.813h7.49v5.92Zm0-7.854h-9.342a2.884 2.884 0 0 0-.93-.154h-.816v-2.995h11.088v3.149Z" fill="#BEAD8E"/><path d="M58.633 30.321a.973.973 0 0 0-.684-.283.972.972 0 0 0-.967.966.97.97 0 0 0 1.651.683c.18-.18.282-.429.282-.683a.974.974 0 0 0-.282-.683ZM47.322 5.334a.967.967 0 0 0 .967-.967V1.814c0-.889-.723-1.612-1.611-1.612H19.322c-.889 0-1.611.723-1.611 1.612v14.335c0 .889.723 1.611 1.611 1.611h27.356c.889 0 1.611-.722 1.611-1.61v-7.4a.967.967 0 1 0-1.933 0v2.736l-4.57-7.916a.967.967 0 0 0-1.675 0l-4.114 7.125-2.87-4.97c0-.002-.003-.004-.004-.006a.967.967 0 0 0-1.67.007l-5.832 10.101h-5.977V2.136h26.712v2.231c0 .534.433.967.966.967Zm-6.374.653 5.408 9.366v.474h-11.09l5.682-9.84ZM32.29 8.143l2.59 4.486-1.846 3.198h-5.18l4.436-7.684Z" fill="#BEAD8E"/><path d="M24.838 3.24a3.28 3.28 0 0 0-3.277 3.277 3.28 3.28 0 0 0 3.277 3.277 3.28 3.28 0 0 0 3.276-3.277 3.28 3.28 0 0 0-3.276-3.277Zm0 4.62c-.741 0-1.344-.602-1.344-1.343a1.345 1.345 0 0 1 2.687 0c0 .741-.603 1.344-1.343 1.344Z" fill="#BEAD8E"/></svg>