<svg width="16" height="17" fill="none" xmlns="http://www.w3.org/2000/svg"><path d="M15.688 13.446h-.62V7.083c.365-.282.6-.723.6-1.22V4.19a.362.362 0 0 0-.024-.123l-.992-2.481a.313.313 0 0 0-.29-.197H1.638a.313.313 0 0 0-.29.197l-.992 2.48a.34.34 0 0 0-.025.124v1.675c0 .496.236.937.601 1.219v6.363h-.62a.312.312 0 0 0-.312.313v1.64c0 .173.14.313.313.313h6.274a.312.312 0 1 0 0-.625H.625V14.07h14.75v1.016H9.413a.312.312 0 1 0 0 .625h6.274c.173 0 .313-.14.313-.313v-1.64a.312.312 0 0 0-.313-.313ZM12.59 5.864a.915.915 0 0 1-1.826 0V4.5h1.826v1.364Zm-2.451 0a.915.915 0 0 1-1.828 0V4.5h1.828v1.364Zm-2.453 0a.915.915 0 0 1-1.827 0V4.5h1.827v1.364Zm-2.452 0a.915.915 0 0 1-1.827 0V4.5h1.828v1.364Zm-4.279 0V4.5h1.827v1.364a.915.915 0 0 1-1.827 0Zm4.567-3.85-.249 1.861H3.503l.496-1.862h1.524Zm2.79 0h1.534l.248 1.861H8.312V2.013Zm3.688 0 .496 1.861h-1.771l-.249-1.862h1.524ZM13.217 4.5h1.826v1.364a.915.915 0 0 1-1.826 0V4.5Zm1.678-.625h-1.75l-.497-1.862h1.502l.745 1.862Zm-7.207 0H5.905l.248-1.862h1.535v1.862ZM1.85 2.013h1.502l-.496 1.862h-1.75l.744-1.862Zm1.206 11.433V8.898H6.29v4.548H3.056Zm3.858 0v-4.86a.312.312 0 0 0-.312-.313H2.744a.312.312 0 0 0-.313.313v4.86h-.874V7.37a1.54 1.54 0 0 0 1.539-.578 1.537 1.537 0 0 0 2.452 0 1.537 1.537 0 0 0 2.452 0 1.537 1.537 0 0 0 2.452 0 1.537 1.537 0 0 0 2.452 0 1.537 1.537 0 0 0 1.538.578v6.076H6.914Z" fill="#BEAD8E"/><path d="M13.257 8.273h-4.86a.312.312 0 0 0-.312.313v3.399c0 .172.14.312.312.312h4.86c.172 0 .312-.14.312-.312v-3.4a.312.312 0 0 0-.313-.312Zm-.313 3.4h-2.145l.527-.528a.313.313 0 0 0-.442-.442l-.97.97H8.71V8.897h4.234v2.774Z" fill="#BEAD8E"/><path d="M9.457 11.079a.312.312 0 0 1-.22-.534l1.244-1.244a.313.313 0 0 1 .442.442l-1.245 1.244a.312.312 0 0 1-.221.092ZM8.005 15.712a.315.315 0 0 1-.295-.212.315.315 0 0 1 .097-.342.315.315 0 0 1 .363-.024c.11.068.167.2.142.326a.316.316 0 0 1-.307.252Z" fill="#BEAD8E"/></svg>