<svg width="16" height="17" fill="none" xmlns="http://www.w3.org/2000/svg"><g clip-path="url(#a)" fill="#BEAD8E"><path d="M10.771 9.891a.315.315 0 0 0-.22.091.315.315 0 0 0 .221.534.315.315 0 0 0 .312-.313.314.314 0 0 0-.312-.313Z"/><path d="M16 9.516c0-.442-.289-.818-.688-.95V2.237A1.69 1.69 0 0 0 13.626.55h-.664a1.69 1.69 0 0 0-1.663 1.404A1.469 1.469 0 0 0 10.12 3.39v.346c0 .173.14.313.312.313h2.308c.172 0 .312-.14.312-.313v-.346c0-.689-.477-1.268-1.118-1.424.12-.455.535-.792 1.027-.792h.664c.586 0 1.063.477 1.063 1.062v6.279H7.973a.997.997 0 0 0-.661-.25H4.564a.997.997 0 0 0-.66.25H1a1.001 1.001 0 0 0-.313 1.95v1.227c0 .923.324 1.771.864 2.439l-.52.938a1.001 1.001 0 0 0 .87 1.48 1.003 1.003 0 0 0 .874-.515l.397-.718c.435.168.907.261 1.4.261h6.854c.494 0 .966-.093 1.401-.261l.397.718a.99.99 0 0 0 .874.515 1.001 1.001 0 0 0 .87-1.48l-.52-.938c.54-.668.864-1.516.864-2.44v-1.226c.398-.132.687-.508.687-.95Zm-3.573-6.125v.034h-1.682V3.39a.842.842 0 0 1 1.682 0Zm-7.863 5.5h2.748c.207 0 .376.169.376.376v3.249h-3.5V9.267c0-.207.169-.376.376-.376Zm-3.563.25h2.57a1.005 1.005 0 0 0-.008.126v.624H1.001a.375.375 0 0 1 0-.75Zm1.228 6.592a.369.369 0 0 1-.511.142.374.374 0 0 1-.14-.502l.426-.769c.187.165.39.313.606.44l-.381.689Zm12.054.142a.37.37 0 0 1-.511-.142l-.38-.69a3.91 3.91 0 0 0 .605-.439l.425.769a.373.373 0 0 1-.139.502ZM15 9.89h-2.823a.313.313 0 0 0 0 .625h2.51v1.177a3.264 3.264 0 0 1-3.26 3.26H4.574a3.264 3.264 0 0 1-3.26-3.26v-1.177h2.25v2.312c0 .173.14.313.312.313H8c.173 0 .313-.14.313-.313v-2.312h1.052a.313.313 0 0 0 0-.625H8.313v-.624c0-.043-.003-.085-.008-.126H15a.375.375 0 0 1 0 .75Z"/></g><defs><clipPath id="a"><path fill="#fff" transform="translate(0 .55)" d="M0 0h16v16H0z"/></clipPath></defs></svg>