<svg width="16" height="17" fill="none" xmlns="http://www.w3.org/2000/svg"><path d="M16 9.43c0-.53-.29-1.007-.756-1.245-.475-.243-1.09-.367-1.83-.367H5.387a1.606 1.606 0 0 0-.378-.764L3.869 5.788a1.676 1.676 0 0 0-1.14-.535l-.204-.015a.805.805 0 0 0-.314.042v-.67a.82.82 0 0 0-.256-.595A1.107 1.107 0 1 0 0 3.308c0 .268.097.515.257.707A.82.82 0 0 0 0 4.61v9.975c0 .172.14.312.313.312H1.39a.313.313 0 0 0 .311-.283c.037-.393.246-1.474.761-1.959H3.3a.313.313 0 0 0 0-.625H.625V9.28h4.171v.814c0 .482.392.874.874.874h9.456a.877.877 0 0 0 .249-.036v1.1H6.05a.312.312 0 1 0 0 .624h7.487c.513.483.723 1.565.76 1.959.016.16.15.283.312.283h1.079c.172 0 .312-.14.312-.312V9.429ZM2.212 6.301c.005-.133-.014-.271.096-.369.11-.098.243-.066.377-.057.295.021.544.135.72.33l1.138 1.266c.185.205.273.491.25.805-.01.121-.008.228-.11.313-.093.078-.194.064-.306.06-.315-.009-.59-.127-.774-.332L2.464 7.052a1.058 1.058 0 0 1-.252-.75ZM.625 8.655V4.61c0-.11.089-.198.198-.198h.566c.109 0 .197.089.197.198v4.044H.625Zm1.586-.95.855.95H2.21v-.95ZM1.106 2.827a.481.481 0 1 1-.001.962.481.481 0 0 1 0-.962Zm.013 11.446H.625v-1.617h1.048c-.338.554-.491 1.239-.554 1.617Zm4.55-3.93a.25.25 0 0 1-.248-.249v-1.65h7.994c.638 0 1.158.1 1.545.297a.767.767 0 0 1 .415.688v.665a.249.249 0 0 1-.249.249H5.67Zm9.212 3.93c-.063-.378-.216-1.063-.554-1.617h1.048v1.617h-.494Z" fill="#BEAD8E"/><path d="M4.964 12.224a.315.315 0 0 0-.408-.169.315.315 0 0 0-.17.408c.066.158.251.234.409.17a.316.316 0 0 0 .169-.409Z" fill="#BEAD8E"/></svg>