<svg width="16" height="17" fill="none" xmlns="http://www.w3.org/2000/svg"><g clip-path="url(#a)" fill="#BEAD8E"><path d="M14.877 7.526a6.83 6.83 0 0 0-2.01-4.618A6.838 6.838 0 0 0 8 .89c-3.712 0-6.745 2.955-6.876 6.636a1.618 1.618 0 0 0-.963 1.478v1.815c0 .891.725 1.617 1.617 1.617.577 0 1.046-.47 1.046-1.046V8.433c0-.542-.415-.984-.943-1.036A6.14 6.14 0 0 1 8 1.64c1.637 0 3.178.639 4.337 1.798a6.088 6.088 0 0 1 1.781 3.959 1.044 1.044 0 0 0-.942 1.036v2.957c0 .546.422.99.956 1.037v.747c0 .841-.685 1.526-1.526 1.526h-1.13a1.119 1.119 0 0 0-1.067-.76H9.245a1.137 1.137 0 0 0-.802 1.936c.214.215.499.333.802.333h1.165a1.14 1.14 0 0 0 1.067-.76h1.13a2.279 2.279 0 0 0 2.276-2.275v-.881c.563-.253.957-.818.957-1.474V9.002c0-.658-.397-1.225-.963-1.477Zm-12.803.907v2.957a.297.297 0 0 1-.296.296.868.868 0 0 1-.867-.867V9.003c0-.478.389-.867.867-.867.163 0 .296.133.296.297Zm8.712 6.722a.386.386 0 0 1-.376.305H9.245a.382.382 0 0 1-.273-.114.386.386 0 0 1 .272-.656h1.166a.38.38 0 0 1 .272.114.38.38 0 0 1 .104.351Zm4.304-4.336a.868.868 0 0 1-.867.867.297.297 0 0 1-.297-.296V8.433c0-.164.133-.297.297-.297.478 0 .867.39.867.867v1.816Z"/><path d="M10.429 10.948a1.59 1.59 0 0 0 1.589-1.589V6.121c0-.423-.166-.822-.466-1.123-.3-.3-.7-.466-1.123-.466H5.572a1.59 1.59 0 0 0-1.589 1.59v3.237a1.59 1.59 0 0 0 1.59 1.589h.03v.839a.777.777 0 0 0 1.326.55l1.396-1.389h2.104Zm-2.523-.641-1.51 1.502c-.007.007-.012.013-.026.006-.018-.007-.018-.018-.018-.028v-1.214a.375.375 0 0 0-.375-.375h-.404a.84.84 0 0 1-.84-.839V6.121a.84.84 0 0 1 .84-.839h4.856c.224 0 .434.088.593.246.159.16.246.37.246.593V9.36a.84.84 0 0 1-.839.839H8.171c-.1 0-.195.04-.265.109Z"/><path d="M6.178 7.247a.554.554 0 1 0 .002 1.108.554.554 0 0 0-.002-1.108ZM8 7.247a.554.554 0 1 0 .002 1.108.554.554 0 0 0-.001-1.108ZM9.822 7.247a.554.554 0 1 0 .002 1.108.554.554 0 0 0-.002-1.108Z"/></g><defs><clipPath id="a"><path fill="#fff" transform="translate(0 .55)" d="M0 0h16v16H0z"/></clipPath></defs></svg>