<svg width="68" height="50" fill="none" xmlns="http://www.w3.org/2000/svg"><path d="m64.96 36.693-4.114-1.175a.418.418 0 0 1-.301-.4v-1.373a7.49 7.49 0 0 0 .952-.781 7.328 7.328 0 0 0 2.243-5.302v-1.895l.398-.795c.436-.873.667-1.85.667-2.827v-5.133a.996.996 0 0 0-.996-.996h-9.586a6.329 6.329 0 0 0-6.321 6.321v.06c0 .811.192 1.624.555 2.35l.51 1.02v1.627a7.772 7.772 0 0 0 3.195 6.284v1.44c0 .221 0 .313-.822.548l-2.007.574-5.807-2.112a.995.995 0 0 0-.272-.762l-1.855-1.95v-3.272c.196-.162.39-.328.577-.503a11.691 11.691 0 0 0 3.683-8.5v-2.613a11.514 11.514 0 0 0 1.065-4.842V1.036a.996.996 0 0 0-.996-.996h-14.91C25.57.04 21.3 4.31 21.3 9.556v2.13c0 1.677.358 3.305 1.065 4.843v2.248c0 3.724 1.656 7.078 4.26 9.29v3.35l-1.855 1.949a.995.995 0 0 0-.272.763l-6.128 2.228c-.444.161-.857.38-1.232.645l-.962-.481c2.865-1.247 3.772-3 3.816-3.088.14-.28.14-.61 0-.89-.718-1.437-.805-4.07-.875-6.185a53.788 53.788 0 0 0-.088-1.962c-.34-4.777-3.972-8.38-8.449-8.38s-8.109 3.603-8.448 8.38a53.898 53.898 0 0 0-.088 1.963c-.07 2.115-.157 4.747-.875 6.183-.14.28-.14.61 0 .89.044.088.95 1.838 3.82 3.087l-2.673 1.336A4.17 4.17 0 0 0 0 41.605v7.358a.996.996 0 1 0 1.992 0v-7.359c0-.838.466-1.592 1.216-1.967l3.328-1.664 1.158 1.1a4.18 4.18 0 0 0 2.887 1.154 4.18 4.18 0 0 0 2.888-1.154l1.157-1.1 1.086.543a5.246 5.246 0 0 0-.801 2.78v7.668a.996.996 0 0 0 1.992 0v-7.667c0-1.367.863-2.6 2.148-3.068l6.462-2.35 2.69 4.036a2.053 2.053 0 0 0 1.717.918c.544 0 1.066-.215 1.455-.604l1.641-1.641v10.376a.996.996 0 1 0 1.993 0V38.588l1.64 1.64a2.052 2.052 0 0 0 1.661.595 2.054 2.054 0 0 0 1.512-.908l2.69-4.035 6.462 2.35a3.274 3.274 0 0 1 2.148 3.067v7.667a.996.996 0 0 0 1.992 0v-7.667c0-1.385-.55-2.684-1.473-3.644l.246-.07a5.46 5.46 0 0 0 .927-.335l2.543 2.543v9.173a.996.996 0 0 0 1.992 0V39.79l2.526-2.526c.134.069.275.126.424.169l4.114 1.175a2.209 2.209 0 0 1 1.595 2.115v8.24a.996.996 0 0 0 1.992 0v-8.24a4.21 4.21 0 0 0-3.04-4.031Zm-58.57-1.76c-1.863-.67-2.798-1.564-3.197-2.052.272-.71.449-1.525.568-2.385a7.427 7.427 0 0 0 2.63 3.244v1.194Zm5.707 2.696c-.85.808-2.18.808-3.03 0l-.927-.88a2.06 2.06 0 0 0 .243-.973v-1.061a7.411 7.411 0 0 0 4.398 0v1.061c0 .348.085.68.242.973l-.926.88Zm-1.515-4.572a5.4 5.4 0 0 1-5.394-5.395.996.996 0 0 0-1.16-.981l.009-.256c.022-.685.043-1.332.083-1.887.127-1.79.842-3.44 2.014-4.644a6.156 6.156 0 0 1 4.448-1.886c1.686 0 3.266.67 4.448 1.886 1.171 1.205 1.886 2.854 2.014 4.644a52.845 52.845 0 0 1 .089 2.064c-1.084-1.67-2.757-2.9-4.92-3.595-1.998-.642-3.716-.602-3.789-.6a.996.996 0 0 0-.69.304l-1.796 1.864a.996.996 0 1 0 1.434 1.383l1.495-1.551c1.288.063 5.431.544 7.043 4.093a5.381 5.381 0 0 1-5.328 4.557Zm4.19 1.88v-1.188a7.369 7.369 0 0 0 2.63-3.247c.12.858.296 1.67.568 2.38-.397.483-1.336 1.385-3.197 2.055Zm9.586-16.16v-2.471a.997.997 0 0 0-.099-.433 9.555 9.555 0 0 1-.966-4.186v-2.13c0-4.15 3.376-7.525 7.524-7.525h13.915v9.655c0 1.45-.325 2.858-.966 4.186a.997.997 0 0 0-.099.433v2.836c0 2.698-1.084 5.2-3.053 7.045-.246.23-.501.447-.765.648l-.017.012a9.578 9.578 0 0 1-6.464 1.929c-5.052-.328-9.01-4.72-9.01-9.999Zm5.609 20.043c-.007.007-.023.023-.056.02a.063.063 0 0 1-.05-.03l-3.098-4.648.997-1.047 4.7 3.212-2.493 2.493Zm4.046-3.844-5.395-3.687v-1.86a11.216 11.216 0 0 0 5.405 1.36c1.904 0 3.738-.456 5.384-1.32v1.82l-5.394 3.687Zm4.152 3.834a.063.063 0 0 1-.051.03c-.032.004-.048-.013-.055-.02l-2.493-2.492 4.7-3.213.997 1.048-3.098 4.647Zm18.188-.84-2.26-2.261c.04-.18.062-.376.062-.592v-.42a6.988 6.988 0 0 0 2.201.352 7.4 7.4 0 0 0 2.197-.332v.4c0 .2.025.394.072.581l-2.272 2.271Zm3.757-6.436a5.353 5.353 0 0 1-3.923 1.52c-2.883-.086-5.228-2.625-5.228-5.66v-1.862a.995.995 0 0 0-.105-.445l-.615-1.23a3.28 3.28 0 0 1-.345-1.46v-.06a4.334 4.334 0 0 1 4.33-4.329h8.589v4.137c0 .669-.158 1.338-.457 1.936l-.503 1.006a.995.995 0 0 0-.105.445v2.13a5.352 5.352 0 0 1-1.638 3.872Z" fill="#BEAD8E"/></svg>