<svg width="16" height="17" fill="none" xmlns="http://www.w3.org/2000/svg"><g clip-path="url(#a)"><path d="M15.452 2.72h-2.027a1.214 1.214 0 0 0-1.163-.889H4.214c-.556 0-1.024.378-1.163.89H.548A.549.549 0 0 0 0 3.267v.515c0 .302.246.548.548.548h2.46v4.41a.235.235 0 1 0 .47 0V3.037c0-.406.33-.736.736-.736h7.093a1.2 1.2 0 0 0-.25.736v8.503h-7.58V9.68a.235.235 0 0 0-.47 0v4.884c0 .389.317.705.705.705h7.11a.705.705 0 0 0 .704-.705v-3.42h1.237a.705.705 0 0 0 .704-.705V6.328a.235.235 0 0 0-.47 0v4.111c0 .13-.105.235-.234.235h-1.237V4.331h1.472v1.058a.235.235 0 1 0 .47 0V4.33h1.984A.549.549 0 0 0 16 3.783v-.515a.549.549 0 0 0-.548-.548ZM.548 3.861a.078.078 0 0 1-.078-.078v-.515c0-.043.035-.078.078-.078h2.46v.671H.548Zm11.714-1.56a.74.74 0 0 1 .663.42h-1.327a.737.737 0 0 1 .664-.42ZM10.822 14.8h-7.11a.235.235 0 0 1-.234-.235v-1.009H8.35a.235.235 0 0 0 0-.47H3.478V12.01h7.578v1.076H9.29a.235.235 0 1 0 0 .47h1.767v1.01c0 .129-.105.234-.235.234ZM15.53 3.783a.078.078 0 0 1-.078.078h-3.926V3.19h3.926c.043 0 .078.035.078.078v.515Z" fill="#BEAD8E"/></g><defs><clipPath id="a"><path fill="#fff" transform="translate(0 .55)" d="M0 0h16v16H0z"/></clipPath></defs></svg>