<svg width="22" height="21" fill="none" xmlns="http://www.w3.org/2000/svg"><path d="M15.46 10.249A5.968 5.968 0 0 0 17 6.25c0-3.308-2.692-6-6-6s-6 2.692-6 6 2.692 6 6 6c1.166 0 2.252-.34 3.175-.918A8.983 8.983 0 0 1 19.969 19H2.031a9.004 9.004 0 0 1 3.059-6.038.75.75 0 1 0-.986-1.131A10.5 10.5 0 0 0 .5 19.75c0 .415.336.75.75.75h19.5a.75.75 0 0 0 .75-.75c0-4.114-2.385-7.789-6.04-9.501ZM6.5 6.25c0-2.482 2.018-4.5 4.5-4.5s4.5 2.018 4.5 4.5-2.018 4.5-4.5 4.5a4.505 4.505 0 0 1-4.5-4.5Z" fill="#111"/></svg>