<svg width="18" height="15" fill="none" xmlns="http://www.w3.org/2000/svg"><path d="M8.925 8.981c-1.06 0-2.12.437-2.807 1.248-.623.748-1.746-.25-1.122-.998a5.247 5.247 0 0 1 3.929-1.747c1.497 0 2.931.624 3.93 1.747.623.748-.5 1.746-1.123.998-.686-.811-1.747-1.248-2.807-1.248Zm0 5.24c-.81 0-1.497-.687-1.497-1.498 0-.81.686-1.497 1.497-1.497.81 0 1.497.687 1.497 1.497 0 .811-.686 1.497-1.497 1.497Zm0-8.982c-1.996 0-3.805.686-5.239 2.12-.624.624-1.809-.311-1.06-1.06C4.31 4.615 6.555 3.742 8.925 3.742c2.37 0 4.615.873 6.3 2.557.748.749-.437 1.684-1.061 1.06-1.434-1.434-3.243-2.12-5.239-2.12Zm0-3.742c-2.869 0-5.55 1.06-7.61 2.994-.748.686-1.808-.375-1.06-1.06C2.689 1.184 5.683 0 8.926 0c3.243 0 6.237 1.185 8.67 3.43.748.686-.313 1.747-1.06 1.06-2.06-1.933-4.741-2.993-7.61-2.993Z" fill="#222"/></svg>