<svg width="57" height="64" fill="none" xmlns="http://www.w3.org/2000/svg"><path d="M51.996 16.582a2.808 2.808 0 1 0 0 5.617 2.808 2.808 0 0 0 0-5.617Zm0 4.094a1.285 1.285 0 1 1 0-2.57 1.285 1.285 0 0 1 0 2.57ZM19.357 9.702a3.309 3.309 0 1 0 .003-6.617 3.309 3.309 0 0 0-.003 6.617Zm0-5.094a1.785 1.785 0 1 1 .003 3.57 1.785 1.785 0 0 1-.003-3.57ZM32.144 28.93a3.307 3.307 0 1 0-6.615.002 3.307 3.307 0 0 0 6.615-.003Zm-3.308 1.785a1.785 1.785 0 1 1-.002-3.57 1.785 1.785 0 0 1 .002 3.57ZM7 20.038a3.308 3.308 0 1 0 .003-6.617A3.308 3.308 0 0 0 7 20.038Zm0-5.094a1.786 1.786 0 1 1 .002 3.572A1.786 1.786 0 0 1 7 14.944Z" fill="#BEAD8E"/><path d="M56.8 19.203c-.163-2.514-2.217-4.482-4.675-4.482a4.605 4.605 0 0 0-3.075 1.185c-2.496-2.438-5.612-4.538-9.062-6.1C36.076 8.036 32.01 7.1 28.228 7.1c-1.044.01-2.086.074-3.122.194.052-.371.065-.747.04-1.121-.196-3.03-2.67-5.403-5.63-5.403s-5.433 2.373-5.63 5.401a5.93 5.93 0 0 0 1.181 3.863l.158.21a38.246 38.246 0 0 0-4.021 2.622 5.566 5.566 0 0 0-4.045-1.76c-2.96 0-5.433 2.374-5.63 5.401a5.932 5.932 0 0 0 1.18 3.864l.909 1.214C1.466 25.723.19 30.763.19 35.165a28.038 28.038 0 1 0 56.076 0c0-3.124-.796-7.81-1.836-10.898l1.391-1.86a4.818 4.818 0 0 0 .98-3.204ZM15.407 6.271c.127-1.955 1.699-3.978 4.11-3.978 2.41 0 3.982 2.023 4.11 3.98a4.29 4.29 0 0 1-.881 2.85l-3.23 4.319-3.223-4.312a4.402 4.402 0 0 1-.886-2.859ZM3.05 16.607c.127-1.955 1.699-3.978 4.11-3.978 2.41 0 3.982 2.023 4.11 3.98a4.288 4.288 0 0 1-.881 2.85l-3.23 4.319-3.223-4.312a4.402 4.402 0 0 1-.886-2.859Zm1.59 6.344 1.91 2.555a.76.76 0 0 0 1.22 0l3.839-5.135a5.77 5.77 0 0 0 .489-6.271 36.582 36.582 0 0 1 4.048-2.623l2.76 3.693a.762.762 0 0 0 1.221 0l3.839-5.135c.268-.358.496-.744.68-1.151.317-.04.633-.078.945-.11l3.199 4.615a3.047 3.047 0 0 1-.091 3.606l-.904 1.173a2.072 2.072 0 0 1-1.898.79l-1.025-.131a3.714 3.714 0 0 0-3.676 1.804 2.093 2.093 0 0 1-2.07 1.018l-2.367-.3a3.838 3.838 0 0 0-3.682 1.665 3.416 3.416 0 0 0-.058 3.741l1.564 2.472a3.184 3.184 0 0 0 4.182 1.1l1.61-.863c.788-.423 2.069-.427 2.992-.047a6.07 6.07 0 0 0 1.18 3.152l3.839 5.137a.762.762 0 0 0 1.22 0l1.947-2.605.248.34c.105.146.217.29.334.427l1.955 2.303a.994.994 0 0 1-.152 1.432l-2.962 2.278a4.765 4.765 0 0 0-1.66 2.389l-.987 3.206a1.997 1.997 0 0 1-.374.69l-.96 1.158a5.628 5.628 0 0 0-1.274 3.027 1.516 1.516 0 0 1-.92 1.242.757.757 0 0 1-1.037-.574l-.905-5.435a4.221 4.221 0 0 0-.804-1.86l-3.316-4.351a3.841 3.841 0 0 1-.649-1.308l-1.094-3.952a4.17 4.17 0 0 0-2.906-2.896l-.238-.065a3.055 3.055 0 0 1-1.287-.722l-2.041-1.924a4.61 4.61 0 0 1-.829-1.044 4.545 4.545 0 0 0-4.81-2.179.76.76 0 0 0-.088.023l-2.046.665a29.794 29.794 0 0 1 1.888-5.02Zm20.246 5.856c.127-1.955 1.7-3.978 4.11-3.978s3.983 2.023 4.11 3.98a4.288 4.288 0 0 1-.88 2.85l-3.23 4.319-3.224-4.312a4.402 4.402 0 0 1-.886-2.859Zm29.856 6.358c0 14.636-11.894 26.542-26.514 26.542S1.712 49.8 1.712 35.165a26.25 26.25 0 0 1 .61-5.452l2.9-.943a3.022 3.022 0 0 1 3.155 1.457 6.14 6.14 0 0 0 1.101 1.388l2.042 1.924a4.59 4.59 0 0 0 1.93 1.082l.238.065a2.639 2.639 0 0 1 1.838 1.834l1.095 3.952c.182.66.49 1.28.905 1.825l3.316 4.352c.265.348.44.755.513 1.185l.905 5.436a2.274 2.274 0 0 0 3.129 1.728 3.038 3.038 0 0 0 1.846-2.49 4.11 4.11 0 0 1 .93-2.211l.96-1.157c.298-.358.522-.771.658-1.216l.988-3.206a3.25 3.25 0 0 1 1.131-1.63l2.964-2.278a2.517 2.517 0 0 0 .385-3.625l-1.956-2.303a5.137 5.137 0 0 1-.26-.334l-.528-.724.937-1.253a5.81 5.81 0 0 0 1.18-3.862c-.196-3.03-2.669-5.404-5.63-5.404-2.674 0-4.95 1.939-5.51 4.547-1.265-.373-2.78-.292-3.83.27l-1.61.864a1.657 1.657 0 0 1-2.175-.573l-1.563-2.471a1.894 1.894 0 0 1 .032-2.073 2.323 2.323 0 0 1 2.228-1.009l2.366.301a3.614 3.614 0 0 0 3.576-1.757 2.19 2.19 0 0 1 2.17-1.066l1.025.13a3.602 3.602 0 0 0 3.298-1.37l.904-1.174a4.565 4.565 0 0 0 .136-5.403l-2.688-3.877c.308-.013.601-.02.873-.02 3.568 0 7.417.888 11.133 2.57a31.927 31.927 0 0 1 3.388 1.79l-2.046 3.508a2.853 2.853 0 0 0 .33 3.29 3.628 3.628 0 0 0 2.291 1.214l.371.046a1.87 1.87 0 0 1 1.56 1.314 1.8 1.8 0 0 1-.53 1.866L41.05 27.47a3.515 3.515 0 0 0-1.185 2.63v.862a3.045 3.045 0 0 0 1.398 2.568 1.682 1.682 0 0 1 .764 1.251l.086.861a2.812 2.812 0 0 0 2.806 2.541h2.15a4.587 4.587 0 0 0 4.2-2.745l.13-.294a1.696 1.696 0 0 1 1.483-1.02l.505-.023c.082-.003.164-.01.246-.017l1.072-.108c.024.417.037.816.037 1.188Zm-.163-2.708-1.099.11c-.054.006-.107.01-.162.012l-.505.023a3.21 3.21 0 0 0-2.81 1.93l-.13.295a3.063 3.063 0 0 1-2.803 1.833h-2.151a1.293 1.293 0 0 1-1.29-1.169l-.086-.86a3.195 3.195 0 0 0-1.454-2.38 1.528 1.528 0 0 1-.7-1.288V30.1a1.988 1.988 0 0 1 .67-1.489l3.674-3.248a3.328 3.328 0 0 0 .978-3.449 3.393 3.393 0 0 0-2.831-2.384l-.371-.046a2.107 2.107 0 0 1-1.331-.706 1.326 1.326 0 0 1-.157-1.525l2.01-3.447c1.45.97 2.807 2.071 4.055 3.29a4.847 4.847 0 0 0-.636 2.107 4.918 4.918 0 0 0 .978 3.204l3.087 4.128a.76.76 0 0 0 1.22 0l.568-.759a41.786 41.786 0 0 1 1.276 6.681Zm.023-10.963-2.477 3.312-2.471-3.305a3.387 3.387 0 0 1-.684-2.2c.098-1.502 1.305-3.057 3.155-3.057 1.85 0 3.058 1.555 3.155 3.06a3.296 3.296 0 0 1-.678 2.19Z" fill="#BEAD8E"/></svg>