<svg width="24" height="24" fill="none" xmlns="http://www.w3.org/2000/svg"><path fill-rule="evenodd" clip-rule="evenodd" d="M21.068 0A2.934 2.934 0 0 1 24 2.932v18.136A2.934 2.934 0 0 1 21.068 24H2.932A2.934 2.934 0 0 1 0 21.068V2.932A2.934 2.934 0 0 1 2.932 0h18.136Zm-.983 8.233a2.113 2.113 0 0 0-1.492-1.492C17.277 6.388 12 6.388 12 6.388s-5.277 0-6.593.353a2.113 2.113 0 0 0-1.492 1.492c-.353 1.316-.353 4.061-.353 4.061s0 2.746.353 4.062a2.114 2.114 0 0 0 1.492 1.492c1.316.353 6.593.353 6.593.353s5.277 0 6.593-.353a2.113 2.113 0 0 0 1.492-1.492c.352-1.316.352-4.062.352-4.062s0-2.745-.352-4.061Zm-9.773 6.593V9.763l4.385 2.531-4.385 2.532Z" fill="#777"/></svg>